<?xml version="1.0" encoding="UTF-8" standalone="no"?>
<svg
   xmlns:dc="http://purl.org/dc/elements/1.1/"
   xmlns:cc="http://creativecommons.org/ns#"
   xmlns:rdf="http://www.w3.org/1999/02/22-rdf-syntax-ns#"
   xmlns:svg="http://www.w3.org/2000/svg"
   xmlns="http://www.w3.org/2000/svg"
   viewBox="0 0 5642.0933 727.53333"
   height="727.53333"
   width="5642.0933"
   xml:space="preserve"
   id="svg2"
   version="1.1"><metadata
     id="metadata8"><rdf:RDF><cc:Work
         rdf:about=""><dc:format>image/svg+xml</dc:format><dc:type
           rdf:resource="http://purl.org/dc/dcmitype/StillImage" /></cc:Work></rdf:RDF></metadata><defs
     id="defs6"><clipPath
       id="clipPath20"
       clipPathUnits="userSpaceOnUse"><path
         id="path18"
         d="M 0,0 H 14668.5 V 1891 H 0 Z" /></clipPath></defs><g
     transform="matrix(1.3333333,0,0,-1.3333333,0,727.53333)"
     id="g10"><g
       transform="scale(0.28848)"
       id="g12"><g
         id="g14"><g
           clip-path="url(#clipPath20)"
           id="g16"><path
             id="path22"
             style="fill:#231f20;fill-opacity:1;fill-rule:nonzero;stroke:none"
             d="m 265.164,262.5 h 332.859 c 140.684,-1.828 239.485,23.59 296.286,76.141 56.808,52.519 88.832,110.554 96.043,174.004 1.793,7.242 2.753,14.023 2.753,20.398 0,6.379 0,13.055 0,20.332 0,85.176 -33.449,154.504 -100.156,207.984 -66.734,53.454 -169.586,80.196 -308.48,80.196 H 265.164 Z m 0,817.17 H 441.09 c 131.621,-1.82 229.523,21.76 293.566,70.69 64.012,48.94 96.074,123.32 96.074,223.01 0,68.86 -23.023,129.12 -69,180.82 -46.007,51.69 -130.355,77.5 -253,77.5 H 265.164 Z M 0,1869.81 h 535.77 c 194.835,-1.83 337.277,-50.03 427.574,-144.77 90.126,-94.71 137.036,-198.89 140.686,-312.54 0,-3.65 0,-6.74 0,-9.5 0,-2.66 0,-4.95 0,-6.7 0,-95.65 -22.99,-175.47 -69,-239.49 -46.042,-64.08 -116.87,-115.93 -212.44,-155.6 v -2.694 c 138.926,-27.036 247.62,-83.477 326.08,-169.121 78.47,-85.704 117.7,-190.778 117.7,-315.254 0,-14.414 -0.46,-28.868 -1.36,-43.317 -0.93,-14.386 -3.19,-28.836 -6.78,-43.285 C 1238.37,326.484 1179.77,234.102 1082.37,150.184 984.965,66.3086 835.18,24.3516 633.172,24.3516 H 0 V 1869.81" /><path
             id="path24"
             style="fill:#231f20;fill-opacity:1;fill-rule:nonzero;stroke:none"
             d="m 3127.97,749.57 c 0,-227.324 -68.09,-409.066 -204.29,-545.203 C 2787.43,68.0977 2582.28,0 2308.08,0 2113.24,0 1936.45,57.2695 1777.76,171.879 1619,286.352 1539.64,469.027 1539.64,719.805 V 1869.81 H 1804.8 V 779.332 c 0,-106.5 8.1,-186.293 24.38,-239.512 16.25,-53.254 45.05,-100.523 86.57,-142.015 52.29,-52.387 111.82,-91.586 178.56,-117.731 66.74,-26.207 139.79,-39.199 219.21,-39.199 101,0 188.03,14.383 261.11,43.289 73.08,28.828 130.32,64.012 171.82,105.508 46.9,46.867 78,104.238 93.35,171.84 15.31,67.636 23.01,144.773 23.01,231.343 V 1869.81 h 265.16 V 749.57" /><path
             id="path26"
             style="fill:#231f20;fill-opacity:1;fill-rule:nonzero;stroke:none"
             d="m 5119.46,1742.64 v -284.12 c -72.1,39.69 -141.16,73.47 -206.95,101.48 -65.86,27.91 -132.14,49.1 -198.87,63.59 -37.89,7.17 -75.78,13.05 -113.67,17.57 -37.85,4.51 -76.71,6.77 -116.36,6.77 -211.04,0 -386.51,-66.8 -526.31,-200.25 -139.81,-133.54 -209.66,-302.16 -209.66,-505.969 0,-207.488 68.99,-376.176 206.99,-506 138,-129.926 317.94,-194.836 539.83,-194.836 52.31,0 105.51,4.453 159.59,13.551 54.11,9.008 108.29,22.527 162.4,40.504 54.15,18.062 108.23,39.695 162.34,65.004 54.14,25.214 107.32,55.046 159.63,89.293 V 162.344 C 5048.22,113.676 4950.36,74.4102 4844.84,44.6797 4739.29,14.9492 4614.39,0 4470.09,0 c -272.4,0 -486.17,68.0977 -641.3,204.367 -155.19,136.137 -258.9,286.383 -311.18,450.496 -14.45,45.075 -25.31,89.723 -32.45,133.942 -7.27,44.179 -10.88,87 -10.88,128.523 0,281.402 95.15,514.112 285.53,698.122 190.28,184 432.44,276.01 726.53,276.01 95.57,0 193.47,-12.16 293.54,-36.53 100.15,-24.35 213.36,-62.72 339.58,-115.01 v 2.72" /><path
             id="path28"
             style="fill:#231f20;fill-opacity:1;fill-rule:nonzero;stroke:none"
             d="M 7086.66,24.3516 H 6721.37 L 5782.41,936.262 V 24.3516 H 5517.27 V 1869.81 h 265.14 v -844.25 l 776.63,844.25 h 330.1 L 6085.48,995.797 7086.66,24.3516" /><path
             id="path30"
             style="fill:#231f20;fill-opacity:1;fill-rule:nonzero;stroke:none"
             d="m 9256.76,1063.43 h 170.45 c 140.74,-1.79 236.34,27.48 286.88,87.93 50.44,60.43 75.78,128.57 75.78,204.34 v 5.38 c -1.87,87.47 -30.68,156.2 -86.63,206.33 -55.91,50.03 -147.98,75.07 -276.03,75.07 h -170.45 z m 200.29,806.38 c 187.58,-1.83 335.45,-48.7 443.68,-140.72 108.27,-91.99 162.37,-218.29 162.37,-378.81 0,-106.47 -26.6,-198.45 -79.77,-275.99 -53.24,-77.595 -129.47,-136.231 -228.72,-175.931 52.31,-34.246 99.66,-74.875 142.13,-121.714 42.29,-46.942 83.37,-100.161 123.06,-159.688 23.4,-34.285 47.4,-70.758 71.8,-109.559 24.3,-38.8 49,-78.96 74.4,-120.457 10.7,-18.039 21.1,-35.144 31,-51.359 9.9,-16.309 20.4,-31.652 31.2,-46.035 1.8,-3.594 4,-7.68 6.7,-12.16 2.8,-4.555 5.9,-8.574 9.5,-12.16 21.7,-32.489 46,-67.207 73.1,-104.176 27,-37.012 60.4,-82.5197 100.1,-136.6994 h -316.7 L 9857.5,403.219 c -102.89,158.726 -185.84,265.594 -249,320.64 -63.09,55.012 -122.71,86.137 -178.55,93.348 -10.78,1.793 -21.22,3.125 -31.13,4.051 -9.91,0.898 -20.28,1.359 -31.06,1.359 h -111 V 24.3516 H 8991.61 V 1869.81 h 465.44" /><path
             id="path32"
             style="fill:#231f20;fill-opacity:1;fill-rule:nonzero;stroke:none"
             d="m 10677.3,947.094 c 0,-203.867 68.1,-372.594 204.3,-506.004 136.2,-133.574 307.1,-200.215 512.8,-200.215 207.5,0 379.2,66.641 515.5,200.215 136.2,133.41 204.3,301.238 204.3,503.281 0,203.869 -68.1,372.089 -204.3,504.639 -136.3,132.62 -308,198.92 -515.5,198.92 -205.7,0 -376.6,-66.3 -512.8,-198.92 -136.2,-132.55 -204.3,-300.77 -204.3,-504.639 z m -273.3,0 c 0,254.366 90.2,475.336 270.6,662.966 180.3,187.56 420.3,281.4 719.8,281.4 304.8,0 546.5,-93.38 725.1,-280.07 178.7,-186.69 268,-409.07 268,-667.019 0,-248.914 -88.5,-468.562 -265.2,-658.848 C 11945.5,95.1406 11701,0 11388.9,0 c -301.3,0 -540.6,94.7461 -718.3,284.164 -177.8,189.418 -266.6,409.465 -266.6,660.207 v 2.723" /><path
             id="path34"
             style="fill:#231f20;fill-opacity:1;fill-rule:nonzero;stroke:none"
             d="m 12958.4,947.094 c 0,-203.867 68,-372.594 204.2,-506.004 136.2,-133.574 307.2,-200.215 512.9,-200.215 207.4,0 379.1,66.641 515.4,200.215 136.2,133.41 204.3,301.238 204.3,503.281 0,203.869 -68.1,372.089 -204.3,504.639 -136.3,132.62 -308,198.92 -515.4,198.92 -205.7,0 -376.7,-66.3 -512.9,-198.92 -136.2,-132.55 -204.2,-300.77 -204.2,-504.639 z m -273.4,0 c 0,254.366 90.2,475.336 270.6,662.966 180.4,187.56 420.4,281.4 719.9,281.4 304.7,0 546.5,-93.38 725.1,-280.07 178.6,-186.69 267.9,-409.07 267.9,-667.019 0,-248.914 -88.4,-468.562 -265.2,-658.848 C 14226.4,95.1406 13982.1,0 13670,0 c -301.3,0 -540.7,94.7461 -718.4,284.164 -177.7,189.418 -266.6,409.465 -266.6,660.207 v 2.723" /><path
             id="path36"
             style="fill:#cfd307;fill-opacity:1;fill-rule:nonzero;stroke:none"
             d="m 8288.83,1098.81 h -573.6 l 297.6,-668.38 z m -1198.7,781.99 h 270.59 l 246.26,-543.87 h 784.73 l 232.7,543.87 h 270.56 L 8102.2,24.5508 H 7915.42 L 7090.13,1880.8" /></g></g></g></g></svg>