<?xml version="1.0" encoding="UTF-8"?>
<svg width="292px" height="104px" viewBox="0 0 292 104" version="1.1" xmlns="http://www.w3.org/2000/svg" xmlns:xlink="http://www.w3.org/1999/xlink">
    <!-- Generator: Sketch 53.2 (72643) - https://sketchapp.com -->
    <title>deity</title>
    <desc>Created with Sketch.</desc>
    <g id="Page-1" stroke="none" stroke-width="1" fill="none" fill-rule="evenodd">
        <g id="deity" fill-rule="nonzero">
            <path d="M33.39,103.8 L0,84.52 L0,45.96 L33.4,26.68 L48.1,35.02 L48.1,10.55 L66.8,21.38 L66.8,84.52 L33.39,103.8 Z M48.09,73.47 L48.09,56.79 L33.64,48.45 L19.2,56.79 L19.2,73.47 L33.65,81.81 L48.09,73.47 Z" id="Shape" fill="#AAD406"></path>
            <polygon id="Path" fill="#CCE56A" points="19.2 56.79 33.65 48.45 48.09 56.79 48.09 35.01 33.4 26.67 0.05 45.93 19.2 56.98"></polygon>
            <rect id="Rectangle" fill="#FFFFFF" x="47.97" y="0" width="1" height="83.96"></rect>
            <rect id="Rectangle" fill="#FFFFFF" transform="translate(57.316516, 15.890094) rotate(-60.000000) translate(-57.316516, -15.890094) " x="57.1915155" y="-5.45990627" width="1" height="42.7"></rect>
            <rect id="Rectangle" fill="#FFFFFF" transform="translate(41.140700, 52.516550) rotate(-60.113473) translate(-41.140700, -52.516550) " x="41.0152695" y="33.0999073" width="1" height="38.8332855"></rect>
            <path d="M88,77.39 L88,32.8 L104.64,32.8 C107.948843,32.7310237 111.23765,33.3296071 114.31,34.56 C119.592783,36.6791798 123.682159,41.0060986 125.5,46.4 C126.45496,49.179605 126.931717,52.1010068 126.91,55.04 C126.95391,58.176891 126.421762,61.2952073 125.34,64.24 C124.356571,66.8652886 122.826048,69.2514055 120.85,71.24 C118.857261,73.2181542 116.472905,74.7577669 113.85,75.76 C110.92987,76.8590139 107.829816,77.4016928 104.71,77.36 L88,77.39 Z M116.39,55.03 C116.410357,53.2096168 116.143755,51.3973946 115.6,49.66 C115.122088,48.1283067 114.343579,46.7072732 113.31,45.48 C112.299322,44.3046095 111.029223,43.380279 109.6,42.78 C108.015558,42.1266704 106.313531,41.8066893 104.6,41.84 L98.34,41.84 L98.34,68.32 L104.68,68.32 C106.399059,68.3487029 108.104216,68.0076717 109.68,67.32 C111.100954,66.6834956 112.356608,65.7289245 113.35,64.53 C114.373193,63.2844429 115.150317,61.8557562 115.64,60.32 C116.177986,58.6121786 116.444564,56.8304946 116.43,55.04 L116.39,55.03 Z" id="Shape" fill="#4D4D4D"></path>
            <polygon id="Path" fill="#4D4D4D" points="170.62 68.32 170.62 77.32 139.29 77.32 139.29 32.8 170.06 32.8 170.06 41.8 149.59 41.8 149.59 50.47 167.17 50.47 167.17 58.82 149.59 58.82 149.59 68.32"></polygon>
            <polygon id="Path" fill="#4D4D4D" points="183.18 77.39 183.18 32.8 193.48 32.8 193.48 77.39"></polygon>
            <polygon id="Path" fill="#4D4D4D" points="242.28 41.85 228.71 41.85 228.71 77.39 218.41 77.39 218.41 41.85 204.79 41.85 204.79 32.85 242.28 32.85"></polygon>
            <polygon id="Path" fill="#4D4D4D" points="260.49 32.8 270.1 53.32 279.83 32.85 291.07 32.85 275.18 62.19 275.18 77.39 264.95 77.39 264.95 62.07 249.31 32.8"></polygon>
            <polygon id="Path" fill="#4D4D4D" points="94.51 101.79 94.51 102.86 88 102.86 88 93.32 94.35 93.32 94.35 94.39 89.25 94.39 89.25 97.48 93.72 97.48 93.72 98.48 89.25 98.48 89.25 101.77"></polygon>
            <polygon id="Path" fill="#4D4D4D" points="97.22 99.74 97.22 98.66 101.22 98.66 101.22 99.73"></polygon>
            <path d="M103.9,98.03 C103.901534,97.4470434 104.003004,96.8686649 104.2,96.32 C104.398401,95.7588419 104.700286,95.239871 105.09,94.79 C105.487725,94.3333536 105.974278,93.9624848 106.52,93.7 C107.118875,93.4133077 107.776122,93.269535 108.44,93.28 C109.21064,93.2582468 109.971147,93.4596597 110.63,93.86 C111.215878,94.2069028 111.691025,94.7132635 112,95.32 L111,95.94 C110.870122,95.6595205 110.694378,95.402664 110.48,95.18 C110.287339,94.980027 110.064662,94.8113323 109.82,94.68 C109.590263,94.556808 109.344607,94.4659489 109.09,94.41 C108.846854,94.3572559 108.598801,94.3304393 108.35,94.33 C107.863072,94.3211169 107.381701,94.434583 106.95,94.66 C106.561227,94.8750702 106.220842,95.1678012 105.95,95.52 C105.672722,95.8756854 105.46262,96.2789464 105.33,96.71 C105.191785,97.1432755 105.120959,97.5952143 105.12,98.05 C105.118037,98.5377065 105.202684,99.0218876 105.37,99.48 C105.527382,99.917585 105.760986,100.323854 106.06,100.68 C106.336143,101.019108 106.675829,101.301047 107.06,101.51 C107.468517,101.718394 107.921424,101.824758 108.38,101.82 C108.63929,101.81999 108.897697,101.789787 109.15,101.73 C109.416511,101.66729 109.672512,101.566237 109.91,101.43 C110.158668,101.287505 110.38733,101.112646 110.59,100.91 C110.807847,100.690181 110.98403,100.432682 111.11,100.15 L112.11,100.7 C111.959663,101.054833 111.74237,101.377378 111.47,101.65 C111.19511,101.923893 110.881828,102.156328 110.54,102.34 C110.195982,102.528146 109.829816,102.672597 109.45,102.77 C109.081131,102.867276 108.701473,102.917673 108.32,102.92 C107.693779,102.92678 107.075541,102.77909 106.52,102.49 C105.979843,102.210221 105.497921,101.830114 105.1,101.37 C104.298986,100.43313 103.856082,99.2426037 103.85,98.01 L103.9,98.03 Z" id="Path" fill="#4D4D4D"></path>
            <path d="M118.77,102.93 C118.136362,102.93802 117.509644,102.797608 116.94,102.52 C116.398733,102.254967 115.915933,101.884367 115.52,101.43 C115.124435,100.973328 114.815997,100.447967 114.61,99.88 C114.398557,99.3103554 114.2902,98.707621 114.29,98.1 C114.287793,97.474096 114.403125,96.8533422 114.63,96.27 C114.850373,95.7031626 115.172311,95.1812853 115.58,94.73 C115.979291,94.2870203 116.461773,93.926858 117,93.67 C117.55869,93.4028741 118.170746,93.266102 118.79,93.27 C119.425017,93.2596888 120.05303,93.403823 120.62,93.69 C121.146454,93.9687974 121.614839,94.3455418 122,94.8 C122.788018,95.7234606 123.223748,96.896034 123.23,98.11 C123.232207,98.735904 123.116875,99.3566578 122.89,99.94 C122.672642,100.506086 122.354124,101.027913 121.95,101.48 C121.551241,101.923563 121.068635,102.283818 120.53,102.54 C119.979641,102.79928 119.378371,102.932515 118.77,102.93 L118.77,102.93 Z M115.51,98.1 C115.507682,98.5762573 115.585432,99.0495169 115.74,99.5 C115.886911,99.9360558 116.11041,100.342417 116.4,100.7 C116.673458,101.041756 117.01372,101.324174 117.4,101.53 C117.815346,101.739292 118.274937,101.845615 118.74,101.84 C119.217283,101.848151 119.688776,101.73458 120.11,101.51 C120.497184,101.292653 120.837144,101.000287 121.11,100.65 C121.393212,100.291383 121.609962,99.8849768 121.75,99.45 C121.895951,99.011437 121.970237,98.552211 121.97,98.09 C121.972318,97.6137427 121.894568,97.1404831 121.74,96.69 C121.591804,96.255481 121.364664,95.852054 121.07,95.5 C120.793857,95.1608923 120.454171,94.8789529 120.07,94.67 C119.223583,94.2454658 118.226417,94.2454658 117.38,94.67 C116.993118,94.8835221 116.653061,95.172571 116.38,95.52 C116.094814,95.8752056 115.874753,96.278087 115.73,96.71 C115.579382,97.1577533 115.505015,97.6276188 115.51,98.1 Z" id="Shape" fill="#4D4D4D"></path>
            <polygon id="Path" fill="#4D4D4D" points="134.53 102.86 134.53 95.5 131.36 101.15 130.68 101.15 127.5 95.5 127.5 102.87 126.29 102.87 126.29 93.32 127.56 93.32 131 99.52 134.47 93.32 135.73 93.32 135.73 102.85"></polygon>
            <polygon id="Path" fill="#4D4D4D" points="147.6 102.86 147.6 95.5 144.43 101.15 143.75 101.15 140.57 95.5 140.57 102.87 139.36 102.87 139.36 93.32 140.63 93.32 144.08 99.51 147.54 93.32 148.8 93.32 148.8 102.85"></polygon>
            <polygon id="Path" fill="#4D4D4D" points="158.9 101.79 158.9 102.86 152.43 102.86 152.43 93.32 158.78 93.32 158.78 94.39 153.64 94.39 153.64 97.48 158.11 97.48 158.11 98.48 153.64 98.48 153.64 101.77"></polygon>
            <path d="M161.89,102.86 L161.89,93.32 L166,93.32 C166.401595,93.3155564 166.798722,93.4045675 167.16,93.58 C167.506667,93.7508144 167.815978,93.9887459 168.07,94.28 C168.327265,94.5754449 168.530379,94.9139683 168.67,95.28 C168.809661,95.6333628 168.880924,96.0100399 168.88,96.39 C168.885229,96.7285614 168.838003,97.0658911 168.74,97.39 C168.65116,97.6890972 168.516204,97.9725045 168.34,98.23 C168.167346,98.477128 167.954379,98.6934756 167.71,98.87 C167.460225,99.0508758 167.178666,99.1831742 166.88,99.26 L169.19,102.91 L167.82,102.91 L165.65,99.49 L163.1,99.49 L163.1,102.91 L161.89,102.86 Z M163.1,98.32 L166,98.32 C166.236454,98.324123 166.470193,98.2691255 166.68,98.16 C166.882731,98.0520995 167.060032,97.9020755 167.2,97.72 C167.349395,97.5278717 167.464425,97.3113454 167.54,97.08 C167.620231,96.8381187 167.660756,96.5848393 167.66,96.33 C167.663186,96.0699742 167.615632,95.8118227 167.52,95.57 C167.429088,95.3404091 167.300674,95.1275122 167.14,94.94 C166.988188,94.7603689 166.800953,94.6139853 166.59,94.51 C166.384419,94.4100331 166.158594,94.358709 165.93,94.36 L163.13,94.36 L163.1,98.32 Z" id="Shape" fill="#4D4D4D"></path>
            <path d="M171.43,98.03 C171.431336,97.4470259 171.532812,96.868614 171.73,96.32 C171.928401,95.7588419 172.230286,95.239871 172.62,94.79 C173.003101,94.3386811 173.472219,93.9681463 174,93.7 C174.62652,93.4146966 175.3125,93.2843604 176,93.32 C176.77064,93.2982468 177.531147,93.4996597 178.19,93.9 C178.777863,94.2591565 179.249976,94.7798693 179.55,95.4 L178.55,96.02 C178.420285,95.7394275 178.244524,95.4825452 178.03,95.26 C177.837448,95.0599042 177.61475,94.891194 177.37,94.76 C177.140263,94.636808 176.894607,94.5459489 176.64,94.49 C176.396854,94.4372559 176.148801,94.4104393 175.9,94.41 C175.413072,94.4011169 174.931701,94.514583 174.5,94.74 C174.111227,94.9550702 173.770842,95.2478012 173.5,95.6 C173.222722,95.9556854 173.01262,96.3589464 172.88,96.79 C172.74194,97.2233119 172.671117,97.6752268 172.67,98.13 C172.668037,98.6177065 172.752684,99.1018876 172.92,99.56 C173.077382,99.997585 173.310986,100.403854 173.61,100.76 C173.886143,101.099108 174.225829,101.381047 174.61,101.59 C175.018654,101.79802 175.471468,101.904362 175.93,101.9 C176.18929,101.89999 176.447697,101.869787 176.7,101.81 C176.966554,101.747425 177.222574,101.646365 177.46,101.51 C177.708734,101.367604 177.937408,101.192735 178.14,100.99 C178.357847,100.770181 178.53403,100.512682 178.66,100.23 L179.66,100.78 C179.509663,101.134833 179.29237,101.457378 179.02,101.73 C178.74511,102.003893 178.431828,102.236328 178.09,102.42 C177.745938,102.608051 177.379783,102.752497 177,102.85 C176.631131,102.947276 176.251473,102.997673 175.87,103 C175.243779,103.00678 174.625541,102.85909 174.07,102.57 C173.529843,102.290221 173.047921,101.910114 172.65,101.45 C171.848986,100.51313 171.406082,99.3226037 171.4,98.09 L171.43,98.03 Z" id="Path" fill="#4D4D4D"></path>
            <polygon id="Path" fill="#4D4D4D" points="189 101.79 189 102.86 182.53 102.86 182.53 93.32 188.88 93.32 188.88 94.39 183.74 94.39 183.74 97.48 188.21 97.48 188.21 98.48 183.74 98.48 183.74 101.77"></polygon>
            <path d="M196.74,102.86 L196.74,93.32 L200.82,93.32 C201.221595,93.3155564 201.618722,93.4045675 201.98,93.58 C202.326667,93.7508144 202.635978,93.9887459 202.89,94.28 C203.147096,94.575568 203.350191,94.9140599 203.49,95.28 C203.629661,95.6333628 203.700924,96.0100399 203.7,96.39 C203.705229,96.7285614 203.658003,97.0658911 203.56,97.39 C203.47116,97.6890972 203.336204,97.9725045 203.16,98.23 C202.987346,98.477128 202.774379,98.6934756 202.53,98.87 C202.280225,99.0508758 201.998666,99.1831742 201.7,99.26 L204.01,102.91 L202.64,102.91 L200.47,99.49 L197.95,99.49 L197.95,102.91 L196.74,102.86 Z M197.95,98.36 L200.84,98.36 C201.076454,98.364123 201.310193,98.3091255 201.52,98.2 C201.722731,98.0920995 201.900032,97.9420755 202.04,97.76 C202.189395,97.5678717 202.304425,97.3513454 202.38,97.12 C202.460231,96.8781187 202.500756,96.6248393 202.5,96.37 C202.503186,96.1099742 202.455632,95.8518227 202.36,95.61 C202.269088,95.3804091 202.140674,95.1675122 201.98,94.98 C201.828389,94.80016 201.641107,94.6537396 201.43,94.55 C201.224419,94.4500331 200.998594,94.398709 200.77,94.4 L197.97,94.4 L197.95,98.36 Z" id="Shape" fill="#4D4D4D"></path>
            <polygon id="Path" fill="#4D4D4D" points="213.36 101.79 213.36 102.86 206.9 102.86 206.9 93.32 213.25 93.32 213.25 94.39 208.1 94.39 208.1 97.48 212.57 97.48 212.57 98.48 208.1 98.48 208.1 101.77"></polygon>
            <polygon id="Path" fill="#4D4D4D" points="216.62 93.32 219.77 101.32 222.91 93.32 224.18 93.32 220.29 102.85 219.29 102.85 215.35 93.32"></polygon>
            <path d="M230.33,102.93 C229.696362,102.93802 229.069644,102.797608 228.5,102.52 C227.958733,102.254967 227.475933,101.884367 227.08,101.43 C226.684435,100.973328 226.375997,100.447967 226.17,99.88 C225.95835,99.3104118 225.849987,98.70764 225.85,98.1 C225.847793,97.474096 225.963125,96.8533422 226.19,96.27 C226.410373,95.7031626 226.732311,95.1812853 227.14,94.73 C227.541298,94.2823647 228.027326,93.9186931 228.57,93.66 C229.12869,93.3928741 229.740746,93.256102 230.36,93.26 C230.995017,93.2496888 231.62303,93.393823 232.19,93.68 C232.7272,93.9555845 233.206,94.3325123 233.6,94.79 C234.388018,95.7134606 234.823748,96.886034 234.83,98.1 C234.832207,98.725904 234.716875,99.3466578 234.49,99.93 C234.272642,100.496086 233.954124,101.017913 233.55,101.47 C233.151241,101.913563 232.668635,102.273818 232.13,102.53 C231.568269,102.798608 230.952625,102.935418 230.33,102.93 Z M227.07,98.1 C227.067682,98.5762573 227.145432,99.0495169 227.3,99.5 C227.447107,99.9359697 227.670588,100.342298 227.96,100.7 C228.233256,101.041954 228.573563,101.324408 228.96,101.53 C229.375346,101.739292 229.834937,101.845615 230.3,101.84 C230.777283,101.848151 231.248776,101.73458 231.67,101.51 C232.057184,101.292653 232.397144,101.000287 232.67,100.65 C232.953212,100.291383 233.169962,99.8849768 233.31,99.45 C233.614774,98.5552411 233.614774,97.5847589 233.31,96.69 C233.161804,96.255481 232.934664,95.852054 232.64,95.5 C232.363857,95.1608923 232.024171,94.8789529 231.64,94.67 C230.793583,94.2454658 229.796417,94.2454658 228.95,94.67 C228.563118,94.8835221 228.223061,95.172571 227.95,95.52 C227.664814,95.8752056 227.444753,96.278087 227.3,96.71 C227.142582,97.1565869 227.061449,97.6264831 227.06,98.1 L227.07,98.1 Z" id="Shape" fill="#4D4D4D"></path>
            <polygon id="Path" fill="#4D4D4D" points="237.84 102.86 237.84 93.32 239 93.32 239 101.77 244.31 101.77 244.31 102.84"></polygon>
            <path d="M250.6,101.84 C251.080282,101.85806 251.55668,101.747591 251.98,101.52 C252.336807,101.315097 252.638732,101.026896 252.86,100.68 C253.084834,100.318422 253.240795,99.9183488 253.32,99.5 C253.408213,99.0554566 253.451763,98.6032078 253.45,98.15 L253.45,93.32 L254.66,93.32 L254.66,98.14 C254.663534,98.7568028 254.589623,99.3716096 254.44,99.97 C254.306762,100.517029 254.069071,101.033157 253.74,101.49 C253.40886,101.918068 252.980316,102.260902 252.49,102.49 C251.280884,103.013429 249.909116,103.013429 248.7,102.49 C248.203792,102.238382 247.775144,101.871459 247.45,101.42 C247.125951,100.959098 246.894967,100.439384 246.77,99.89 C246.629851,99.3070598 246.559358,98.7095504 246.56,98.11 L246.559996,93.32 L247.77,93.32 L247.77,98.14 C247.768065,98.6036405 247.814991,99.0661944 247.91,99.52 C247.994118,99.935365 248.153399,100.331872 248.38,100.69 C248.599086,101.032561 248.897514,101.317268 249.25,101.52 C249.66411,101.743317 250.129712,101.853682 250.6,101.84 Z" id="Path" fill="#4D4D4D"></path>
            <polygon id="Path" fill="#4D4D4D" points="265 94.41 261.71 94.41 261.71 102.86 260.5 102.86 260.5 94.41 257.21 94.41 257.21 93.32 265 93.32"></polygon>
            <polygon id="Path" fill="#4D4D4D" points="267.74 102.86 267.74 93.32 268.95 93.32 268.95 102.85"></polygon>
            <path d="M276.43,102.93 C275.796362,102.93802 275.169644,102.797608 274.6,102.52 C274.058733,102.254967 273.575933,101.884367 273.18,101.43 C272.784435,100.973328 272.475997,100.447967 272.27,99.88 C272.05835,99.3104118 271.949987,98.70764 271.95,98.1 C271.947793,97.474096 272.063125,96.8533422 272.29,96.27 C272.510373,95.7031626 272.832311,95.1812853 273.24,94.73 C273.641298,94.2823647 274.127326,93.9186931 274.67,93.66 C275.22869,93.3928741 275.840746,93.256102 276.46,93.26 C277.095017,93.2496888 277.72303,93.393823 278.29,93.68 C278.8272,93.9555845 279.306,94.3325123 279.7,94.79 C280.488018,95.7134606 280.923748,96.886034 280.93,98.1 C280.932207,98.725904 280.816875,99.3466578 280.59,99.93 C280.372642,100.496086 280.054124,101.017913 279.65,101.47 C279.251241,101.913563 278.768635,102.273818 278.23,102.53 C277.668269,102.798608 277.052625,102.935418 276.43,102.93 L276.43,102.93 Z M273.17,98.1 C273.167682,98.5762573 273.245432,99.0495169 273.4,99.5 C273.547107,99.9359697 273.770588,100.342298 274.06,100.7 C274.333256,101.041954 274.673563,101.324408 275.06,101.53 C275.475346,101.739292 275.934937,101.845615 276.4,101.84 C276.877283,101.848151 277.348776,101.73458 277.77,101.51 C278.157184,101.292653 278.497144,101.000287 278.77,100.65 C279.053212,100.291383 279.269962,99.8849768 279.41,99.45 C279.714774,98.5552411 279.714774,97.5847589 279.41,96.69 C279.261804,96.255481 279.034664,95.852054 278.74,95.5 C278.463857,95.1608923 278.124171,94.8789529 277.74,94.67 C276.893583,94.2454658 275.896417,94.2454658 275.05,94.67 C274.663118,94.8835221 274.323061,95.172571 274.05,95.52 C273.764814,95.8752056 273.544753,96.278087 273.4,96.71 C273.245984,97.1571713 273.168234,97.6270518 273.17,98.1 L273.17,98.1 Z" id="Shape" fill="#4D4D4D"></path>
            <polygon id="Path" fill="#4D4D4D" points="285.16 95.59 285.16 102.86 283.95 102.86 283.95 93.32 284.89 93.32 290.79 100.74 290.79 93.32 292 93.32 292 102.83 291 102.83"></polygon>
        </g>
    </g>
</svg>