<svg width="769" height="126" viewBox="0 0 769 126" fill="none" xmlns="http://www.w3.org/2000/svg">
<path d="M148.77 98.062H144.018C136.626 98.062 131.01 96.046 127.17 92.014C123.426 87.982 121.554 82.174 121.554 74.59V51.406C121.554 43.822 123.618 38.014 127.746 33.982C131.874 29.95 137.73 27.934 145.314 27.934H178.578C180.69 27.934 181.746 28.942 181.746 30.958V101.95C181.746 109.438 179.634 115.198 175.41 119.23C171.282 123.262 165.474 125.278 157.986 125.278H130.338C129.186 125.278 128.37 125.038 127.89 124.558C127.506 124.174 127.314 123.454 127.314 122.398V112.462C127.314 110.446 128.322 109.438 130.338 109.438H154.962C158.034 109.438 160.194 108.766 161.442 107.422C162.786 106.174 163.458 104.062 163.458 101.086V90.142H162.882C161.826 92.734 159.954 94.702 157.266 96.046C154.578 97.39 151.746 98.062 148.77 98.062ZM163.458 71.278V45.358C163.458 44.302 162.882 43.774 161.73 43.774H148.194C145.122 43.774 142.962 44.446 141.714 45.79C140.466 47.038 139.842 49.198 139.842 52.27V73.726C139.842 76.798 140.466 78.958 141.714 80.206C142.962 81.454 145.122 82.078 148.194 82.078H153.522C160.146 82.078 163.458 78.478 163.458 71.278ZM202.562 15.55V3.02202C202.562 1.10202 203.522 0.142022 205.442 0.142022H217.97C219.89 0.142022 220.85 1.05402 220.85 2.87802V15.55C220.85 17.47 219.89 18.43 217.97 18.43H205.442C203.522 18.43 202.562 17.47 202.562 15.55ZM202.562 98.35V30.958C202.562 28.942 203.522 27.934 205.442 27.934H217.826C219.842 27.934 220.85 28.942 220.85 30.958V98.35C220.85 99.598 220.61 100.414 220.13 100.798C219.746 101.182 219.026 101.374 217.97 101.374H205.586C203.57 101.374 202.562 100.366 202.562 98.35ZM243.324 43.774H237.564C236.412 43.774 235.596 43.582 235.116 43.198C234.732 42.814 234.54 42.046 234.54 40.894V30.958C234.54 28.942 235.548 27.934 237.564 27.934H243.324C244.38 27.934 244.908 27.406 244.908 26.35V12.67C244.908 10.654 245.964 9.64602 248.076 9.64602H260.172C262.188 9.64602 263.196 10.654 263.196 12.67V26.35C263.196 27.406 263.772 27.934 264.924 27.934H276.156C278.172 27.934 279.18 28.942 279.18 30.958V40.894C279.18 41.95 278.94 42.718 278.46 43.198C278.076 43.582 277.308 43.774 276.156 43.774H264.924C263.772 43.774 263.196 44.302 263.196 45.358V77.182C263.196 80.158 263.868 82.318 265.212 83.662C266.556 84.91 268.764 85.534 271.836 85.534H277.596C279.612 85.534 280.62 86.542 280.62 88.558V98.494C280.62 99.55 280.38 100.318 279.9 100.798C279.516 101.182 278.748 101.374 277.596 101.374H268.812C261.228 101.374 255.324 99.358 251.1 95.326C246.972 91.294 244.908 85.534 244.908 78.046V45.358C244.908 44.302 244.38 43.774 243.324 43.774ZM312.809 101.374H300.569C298.553 101.374 297.545 100.366 297.545 98.35V3.16602C297.545 1.15002 298.553 0.142022 300.569 0.142022H312.809C314.825 0.142022 315.833 1.15002 315.833 3.16602V98.35C315.833 100.366 314.825 101.374 312.809 101.374ZM362.5 101.374H359.044C351.46 101.374 345.604 99.358 341.476 95.326C337.348 91.294 335.284 85.486 335.284 77.902V51.406C335.284 43.822 337.348 38.014 341.476 33.982C345.604 29.95 351.46 27.934 359.044 27.934H392.308C394.42 27.934 395.476 28.942 395.476 30.958V98.35C395.476 100.366 394.42 101.374 392.308 101.374H380.212C378.196 101.374 377.188 100.366 377.188 98.35V93.598H376.612C375.556 96.19 373.684 98.158 370.996 99.502C368.308 100.75 365.476 101.374 362.5 101.374ZM377.188 74.59V45.358C377.188 44.302 376.612 43.774 375.46 43.774H361.924C358.852 43.774 356.692 44.446 355.444 45.79C354.196 47.038 353.572 49.198 353.572 52.27V77.038C353.572 80.11 354.196 82.318 355.444 83.662C356.692 84.91 358.852 85.534 361.924 85.534H367.252C373.876 85.534 377.188 81.886 377.188 74.59ZM435.447 85.534H450.135C453.207 85.534 455.367 84.91 456.615 83.662C457.959 82.318 458.631 80.11 458.631 77.038V51.982C458.631 48.91 457.959 46.75 456.615 45.502C455.367 44.158 453.207 43.486 450.135 43.486H443.799C437.175 43.486 433.863 47.134 433.863 54.43V83.95C433.863 85.006 434.391 85.534 435.447 85.534ZM415.575 98.35V3.16602C415.575 1.15002 416.583 0.142022 418.599 0.142022H430.839C432.855 0.142022 433.863 1.15002 433.863 3.16602V35.566H434.439C435.495 32.974 437.367 31.006 440.055 29.662C442.743 28.318 445.575 27.646 448.551 27.646H453.159C460.743 27.646 466.599 29.662 470.727 33.694C474.855 37.726 476.919 43.534 476.919 51.118V77.902C476.919 85.486 474.855 91.294 470.727 95.326C466.599 99.358 460.743 101.374 453.159 101.374H418.599C416.583 101.374 415.575 100.366 415.575 98.35ZM511.244 101.374H502.172C500.54 101.374 499.724 100.558 499.724 98.926V2.59002C499.724 0.95802 500.54 0.142022 502.172 0.142022H511.244C512.876 0.142022 513.692 0.95802 513.692 2.59002V35.566H514.268C516.572 30.478 521.42 27.934 528.812 27.934H535.148C542.156 27.934 547.532 29.854 551.276 33.694C555.02 37.534 556.892 43.054 556.892 50.254V98.926C556.892 100.558 556.028 101.374 554.3 101.374H545.228C543.596 101.374 542.78 100.558 542.78 98.926V50.83C542.78 43.726 539.276 40.174 532.268 40.174H525.5C517.628 40.174 513.692 44.254 513.692 52.414V98.926C513.692 100.558 512.876 101.374 511.244 101.374ZM611.986 101.374H599.314C592.21 101.374 586.69 99.406 582.754 95.47C578.914 91.534 576.994 86.062 576.994 79.054V50.254C576.994 43.15 578.914 37.678 582.754 33.838C586.69 29.902 592.21 27.934 599.314 27.934H611.986C618.994 27.934 624.466 29.902 628.402 33.838C632.434 37.678 634.45 43.15 634.45 50.254V79.054C634.45 86.062 632.434 91.534 628.402 95.47C624.466 99.406 618.994 101.374 611.986 101.374ZM601.33 89.134H610.114C617.026 89.134 620.482 85.63 620.482 78.622V50.686C620.482 43.678 617.026 40.174 610.114 40.174H601.33C597.682 40.174 595.042 41.038 593.41 42.766C591.778 44.398 590.962 47.038 590.962 50.686V78.622C590.962 82.27 591.778 84.958 593.41 86.686C595.042 88.318 597.682 89.134 601.33 89.134ZM681.525 101.374H655.029C653.397 101.374 652.581 100.558 652.581 98.926V91.87C652.581 90.334 653.397 89.566 655.029 89.566H679.221C685.461 89.566 688.581 87.406 688.581 83.086V81.358C688.581 77.518 686.325 74.59 681.813 72.574L666.117 65.086C661.221 62.782 657.669 60.238 655.461 57.454C653.253 54.67 652.149 51.022 652.149 46.51C652.149 34.126 659.013 27.934 672.741 27.934H696.645C698.181 27.934 698.949 28.75 698.949 30.382V37.438C698.949 39.07 698.181 39.886 696.645 39.886H675.621C672.741 39.886 670.533 40.414 668.997 41.47C667.461 42.43 666.693 43.726 666.693 45.358V46.942C666.693 50.014 669.141 52.702 674.037 55.006L689.877 63.07C694.869 65.278 698.277 67.918 700.101 70.99C702.021 73.966 702.981 77.854 702.981 82.654C702.981 95.134 695.829 101.374 681.525 101.374ZM724.375 40.174H717.463C716.503 40.174 715.831 40.03 715.447 39.742C715.159 39.358 715.015 38.734 715.015 37.87V30.382C715.015 28.75 715.831 27.934 717.463 27.934H724.375C725.335 27.934 725.815 27.454 725.815 26.494V13.534C725.815 11.902 726.679 11.086 728.407 11.086H737.479C739.111 11.086 739.927 11.902 739.927 13.534V26.494C739.927 27.454 740.455 27.934 741.511 27.934H754.903C756.631 27.934 757.495 28.75 757.495 30.382V37.87C757.495 39.406 756.631 40.174 754.903 40.174H741.511C740.455 40.174 739.927 40.654 739.927 41.614V78.622C739.927 85.63 743.527 89.134 750.727 89.134H756.343C758.071 89.134 758.935 89.95 758.935 91.582V99.07C758.935 100.606 758.071 101.374 756.343 101.374H748.567C741.463 101.374 735.895 99.454 731.863 95.614C727.831 91.774 725.815 86.35 725.815 79.342V41.614C725.815 40.654 725.335 40.174 724.375 40.174Z" fill="#212529"/>
<path d="M53.2862 17.7261C52.6902 17.3835 52.0192 17.1709 51.4136 17.1709L2.87748 17.1709C2.27112 17.1709 1.59863 17.3835 1.00342 17.7261L27.1444 63.0153L53.2862 17.7261" fill="#40D9FF"/>
<path d="M79.4275 63.0138C79.4275 62.3248 79.2752 61.6373 78.9728 61.1126L54.7043 19.0699C54.4004 18.5451 53.8818 18.0702 53.2858 17.7246L27.144 63.0138L79.4275 63.0138Z" fill="#038BFA"/>
<path d="M51.4133 108.861C52.0189 108.861 52.6899 108.647 53.2859 108.303L27.1441 63.0156L0.682124 108.861C0.682124 108.861 48.7256 108.861 51.4133 108.861Z" fill="#9300B0"/>
<path d="M53.2858 108.303C53.8818 107.959 54.4004 107.484 54.7043 106.958C57.8996 101.424 78.9735 64.9139 78.9735 64.9139C79.2752 64.3914 79.4275 63.7039 79.4275 63.0156L27.144 63.0156L53.2858 108.303" fill="#0363DE"/>
</svg>
