<?xml version="1.0" encoding="utf-8"?>
<!-- Generator: Adobe Illustrator 26.0.0, SVG Export Plug-In . SVG Version: 6.00 Build 0)  -->
<svg version="1.1" id="Laag_1" xmlns="http://www.w3.org/2000/svg" xmlns:xlink="http://www.w3.org/1999/xlink" x="0px" y="0px"
	 viewBox="0 0 648.3 183.4" style="enable-background:new 0 0 648.3 183.4;" xml:space="preserve">
<style type="text/css">
	.st0{fill:#EB690B;}
	.st1{fill:#00366C;}
</style>
<g id="Hypernode_logo_pos_00000070106132736089880120000002861667410337836951_">
	<path class="st0" d="M156.5,68.2c-1.8,0-3.3,1.5-3.3,3.3v19.1c0,1.4-1.1,2.5-2.5,2.5h-28.4c-1.4,0-2.5-1.1-2.5-2.5V71.5
		c0-1.8-1.5-3.3-3.3-3.3s-3.3,1.5-3.3,3.3v19.1l0,0l0,0l0,0l0,0c0,5,4.1,9.1,9.1,9.1h10.9v17c0,1.8,1.5,3.3,3.3,3.3s3.3-1.5,3.3-3.3
		v-17h10.9c5,0,9.1-4.1,9.1-9.1V71.5C159.8,69.6,158.3,68.2,156.5,68.2z"/>
	<path class="st1" d="M578.9,57c-4.3,0-7.7,3.5-7.7,7.7c0,4.3,3.5,7.7,7.7,7.7c4.3,0,7.7-3.5,7.7-7.7C586.6,60.5,583.1,57,578.9,57z
		 M578.9,71.2c-3.6,0-6.5-2.9-6.5-6.5c0-3.6,2.9-6.5,6.5-6.5s6.5,2.9,6.5,6.5C585.4,68.3,582.4,71.2,578.9,71.2z M579.4,61.7h-2.8
		l-0.4,0.2l-0.2,0.4v5.6c0,0.3,0.3,0.6,0.6,0.6s0.6-0.3,0.6-0.6v-5h2.2c0.6,0,1,0.4,1,1s-0.5,1-1,1h-0.8c-0.3,0-0.6,0.3-0.6,0.6
		c0,0.3,0.3,0.6,0.6,0.6h0.8c0.1,0,0.2,0,0.2,0h0.1c0.3,0,0.6,0.2,0.6,0.6V68c0,0.3,0.3,0.6,0.6,0.6s0.6-0.3,0.6-0.6v-1.3
		c0-0.5-0.2-0.9-0.5-1.2c0.4-0.4,0.6-0.9,0.6-1.5C581.7,62.6,580.7,61.7,579.4,61.7z M94.9,68.3c-1.8,0-3.3,1.5-3.3,3.3v19.3H63.1
		V71.6c0-1.8-1.5-3.3-3.3-3.3s-3.3,1.5-3.3,3.3v45.1c0,1.8,1.5,3.3,3.3,3.3s3.3-1.5,3.3-3.3V97.5h28.5v19.1c0,1.8,1.5,3.3,3.3,3.3
		s3.3-1.5,3.3-3.3v-45C98.2,69.8,96.7,68.3,94.9,68.3z M237,74.9h25.8c1.8,0,3.3-1.5,3.3-3.3c0-1.8-1.5-3.3-3.3-3.3H237
		c-4.6,0-8.4,3.8-8.4,8.4v34.9c0,4.6,3.8,8.4,8.4,8.4h25.8c1.8,0,3.3-1.5,3.3-3.3s-1.5-3.3-3.3-3.3H237c-1,0-1.8-0.8-1.8-1.8V97.1
		h22.6c1.8,0,3.3-1.5,3.3-3.3s-1.5-3.3-3.3-3.3h-22.5V76.7C235.2,75.7,236,74.9,237,74.9z M381.1,68.3c-1.8,0-3.3,1.5-3.3,3.3v35.9
		l-31.2-38c-0.9-1.1-2.3-1.5-3.7-1c-1.3,0.5-2.2,1.7-2.2,3.1v45.1c0,1.8,1.5,3.3,3.3,3.3s3.3-1.5,3.3-3.3V80.8l31.2,38
		c0.9,1.1,2.3,1.5,3.7,1c1.3-0.5,2.2-1.7,2.2-3.1V71.6C384.4,69.8,382.9,68.3,381.1,68.3z M533,74.9h25.8c1.8,0,3.3-1.5,3.3-3.3
		c0-1.8-1.5-3.3-3.3-3.3H533c-4.6,0-8.4,3.8-8.4,8.4v34.9c0,4.6,3.8,8.4,8.4,8.4h25.8c1.8,0,3.3-1.5,3.3-3.3s-1.5-3.3-3.3-3.3H533
		c-1,0-1.8-0.8-1.8-1.8V97.1h22.5c1.8,0,3.3-1.5,3.3-3.3s-1.5-3.3-3.3-3.3h-22.5V76.7C531.2,75.7,532,74.9,533,74.9z M204.6,70.5
		c-3.2-1.6-7-2.2-11.6-2.2h-15.3c0,0,0,0-0.1,0c-1.8,0-3.3,1.5-3.3,3.3v45.1c0,1.8,1.5,3.3,3.3,3.3s3.3-1.5,3.3-3.3v-15h11.8
		c5.6,0,10.6-1.5,14.2-4.4c3.7-2.9,5.8-7.4,5.8-12.3v-0.2c0-2.5-0.4-4.8-1.2-7C210.2,74.7,207.8,72.1,204.6,70.5z M206.1,85
		c0,3.1-1.2,5.3-3.3,7.1c-2.2,1.8-5.6,3-10.1,3h-11.8V74.9H193c5.2,0,8.5,1.1,10.3,2.6c0.9,0.8,1.6,1.6,2,2.8
		c0.5,1.2,0.7,2.7,0.7,4.5V85H206.1z M315.6,70.4c-3-1.5-6.7-2.1-11-2.1H286c0,0,0,0-0.1,0c-1.8,0-3.3,1.5-3.3,3.3v45.1
		c0,1.8,1.5,3.3,3.3,3.3s3.3-1.5,3.3-3.3V74.9h15.4c4.9,0,7.9,1,9.6,2.4c0.8,0.7,1.4,1.5,1.9,2.6c0.4,1.1,0.7,2.5,0.7,4.2v0.2
		c0,2.9-1.1,4.9-3.1,6.6c-2,1.6-5.2,2.7-9.4,2.7h-6.1c-1.8,0-3.3,1.5-3.3,3.3s1.5,3.3,3.3,3.3h12.3c3.3,0,5.9,2.7,5.9,5.9v10.2
		c0,1.8,1.5,3.3,3.3,3.3s3.3-1.5,3.3-3.3v-10.2c0-4.2-2.1-7.8-5.2-10.1l0,0c3.5-2.8,5.6-7,5.6-11.7v-0.2c0-2.4-0.3-4.6-1.2-6.6
		C321,74.4,318.7,71.9,315.6,70.4z M424.7,66.8c-7.2,0-13.7,3-18.4,7.9c-4.7,4.8-7.6,11.5-7.6,18.9c0,7.3,2.9,14,7.6,18.9
		c4.7,4.8,11.2,7.9,18.4,7.9c7.2,0,13.7-3,18.4-7.9c4.7-4.8,7.6-11.5,7.6-18.9c0-7.3-2.9-14-7.6-18.9
		C438.4,69.9,431.9,66.8,424.7,66.8z M438.3,107.9c-3.5,3.6-8.3,5.9-13.6,5.9c-5.3,0-10.1-2.2-13.6-5.9c-3.5-3.6-5.7-8.7-5.7-14.3
		c0-5.6,2.2-10.6,5.7-14.3c3.5-3.6,8.3-5.9,13.6-5.9c5.3,0,10.1,2.2,13.6,5.9c3.5,3.6,5.7,8.7,5.7,14.3
		C444.1,99.2,441.9,104.2,438.3,107.9z M483.8,68.3h-16.6c-0.9,0-1.7,0.4-2.3,1s-1,1.5-1,2.3v45.1c0,0.9,0.4,1.7,1,2.3
		c0.6,0.6,1.5,1,2.3,1h16.6c14.3,0,25.8-11.6,25.8-25.8C509.6,79.8,498.1,68.3,483.8,68.3z M497.4,107.7c-3.5,3.5-8.3,5.6-13.6,5.6
		h-13.3V74.9h13.3c5.3,0,10.1,2.1,13.6,5.6s5.6,8.3,5.6,13.6S500.9,104.2,497.4,107.7z"/>
</g>
</svg>
