<?xml version="1.0" encoding="UTF-8" standalone="no"?>
<svg width="177px" height="41px" viewBox="0 0 177 41" version="1.1" xmlns="http://www.w3.org/2000/svg" xmlns:xlink="http://www.w3.org/1999/xlink" xmlns:sketch="http://www.bohemiancoding.com/sketch/ns">
    <!-- Generator: Sketch 3.0.2 (7799) - http://www.bohemiancoding.com/sketch -->
    <title>Layer%201</title>
    <description>Created with Sketch.</description>
    <defs></defs>
    <g id="Page-1" stroke="none" stroke-width="1" fill="none" fill-rule="evenodd" sketch:type="MSPage">
        <g id="logo" sketch:type="MSLayerGroup">
            <g id="Layer%201" sketch:type="MSShapeGroup">
                <path d="M52.7739,17.7905 L51.1376,17.7905 L51.1376,36.1583 C51.1376,38.4639 52.7909,39.9298 55.0038,39.9298 L56.7252,39.9298 L56.72,21.7337 C56.72,19.6391 55.4636,17.7905 52.7739,17.7905 L52.7739,17.7905 Z M53.8047,9.1388 C51.9974,9.1388 50.5263,10.605 50.5263,12.4068 C50.5263,14.2081 51.9974,15.7155 53.8047,15.7155 C55.6125,15.7155 57.1261,14.2081 57.1261,12.4068 C57.1261,10.605 55.6125,9.1388 53.8047,9.1388 L53.8047,9.1388 Z M72.3673,16.8052 C70.3996,16.8052 68.5121,18.1227 66.8846,19.8951 C66.3318,18.6706 65.1752,17.7905 63.3284,17.7905 L61.692,17.7905 L61.692,29.0247 L61.692,36.1583 L61.692,36.2441 C61.692,37.0341 61.9133,37.7526 62.3188,38.3412 C62.9951,39.3476 64.1639,39.9298 65.5578,39.9298 L65.6424,39.9298 L67.279,39.9298 L67.3225,39.9298 L67.3225,27.7061 C67.3225,23.9002 69.0451,21.7913 71.4839,21.7913 C74.3845,21.7913 76.0234,23.465 76.0234,27.278 L76.0234,36.2441 C76.0234,38.338 77.6212,39.9298 80.1431,39.9298 L81.6554,39.9298 L81.6554,26.7741 C81.6554,20.3661 78.3268,16.8052 72.3673,16.8052 L72.3673,16.8052 Z M116.8978,16.8052 C114.7545,16.8052 112.8201,18.4807 111.9804,19.8222 L111.9804,13.3691 C111.9804,11.2752 110.6768,9.7675 107.9878,9.7675 L106.2233,9.7675 L106.2233,36.1583 C106.2233,38.4639 107.4408,39.9298 110.0893,39.9298 L111.9381,39.9298 L111.9381,27.1099 C111.9381,23.1313 114.25,21.7913 116.0149,21.7913 C118.4943,21.7913 120.5124,23.2579 120.5124,26.9426 L120.5124,36.1583 C120.5124,38.5891 121.9813,39.9298 124.3375,39.9298 L126.1858,39.9298 L126.1858,26.6911 C126.1858,20.2825 122.7394,16.8052 116.8978,16.8052 L116.8978,16.8052 Z M140.9765,16.8052 C133.663,16.8052 129.7542,22.2519 129.7542,29.0368 C129.7542,35.0271 133.663,40.433 140.4712,40.433 C147.7836,40.433 151.6925,35.0271 151.6925,28.2422 C151.6925,22.2519 147.7836,16.8052 140.9765,16.8052 L140.9765,16.8052 Z M140.9765,35.4055 C137.2353,35.4055 135.5957,32.7243 135.5957,28.2422 C135.5957,24.5132 137.2353,21.8331 140.4712,21.8331 C144.1702,21.8331 145.8527,24.5132 145.8527,29.0368 C145.8527,32.7243 144.2545,35.4055 140.9765,35.4055 L140.9765,35.4055 Z M165.9822,17.0463 C158.6679,17.0463 154.7582,22.4922 154.7582,29.2779 C154.7582,35.2681 158.6679,40.6737 165.4753,40.6737 C172.7908,40.6737 176.6997,35.2681 176.6997,28.4829 C176.6997,22.4922 172.7908,17.0463 165.9822,17.0463 L165.9822,17.0463 Z M165.9822,35.6465 C162.24,35.6465 160.6023,32.965 160.6023,28.4829 C160.6023,24.7539 162.24,22.0738 165.4753,22.0738 C169.1768,22.0738 170.8564,24.7539 170.8564,29.2779 C170.8564,32.965 169.2594,35.6465 165.9822,35.6465 L165.9822,35.6465 Z M97.293,35.2352 C92.937,35.2352 90.9765,32.4286 90.9765,28.3219 C90.9765,24.9713 93.9741,22.4068 97.1551,22.3309 L98.4605,22.2787 C102.7414,22.1546 102.3334,17.3367 102.3334,17.3367 L98.3315,17.1782 C89.1119,17.1782 85.0927,22.709 85.0927,29.1602 C85.0927,35.6118 90.2464,40.4291 95.9316,40.4291 C103.718,40.4291 103.05,34.8747 103.05,34.8747 C103.05,34.8747 99.4007,35.2352 97.293,35.2352 L97.293,35.2352 Z" id="type" fill="#404041"></path>
                <path d="M11.1808,39.9752 C4.8755,39.9752 0.5002,35.3511 0.5002,29.1184 L0.5002,0.045 L29.082,0.045 C35.2836,0.045 39.9611,4.9703 39.9611,11.1039 L39.9611,39.9752 L11.1808,39.9752 L11.1808,39.9752 Z M35.3652,11.1039 C35.3652,8.1278 33.399,5.0264 29.082,5.0264 L4.9955,5.0264 L4.9955,29.1184 C4.9955,31.9665 6.5412,34.9949 11.1808,34.9949 L29.3415,34.9949 L16.9981,21.0081 C16.6418,20.5403 16.4297,19.9559 16.4297,19.3233 C16.4297,17.7837 17.6819,16.5352 19.2269,16.5352 C19.8175,16.5352 20.3668,16.7176 20.819,17.0295 L35.3652,28.3098 L35.3652,11.1039 L35.3652,11.1039 Z M11.9737,15.7155 C10.1671,15.7155 8.6964,14.2081 8.6964,12.4068 C8.6964,10.605 10.1671,9.1388 11.9737,9.1388 C13.7822,9.1388 15.2951,10.605 15.2951,12.4068 C15.2951,14.2081 13.7822,15.7155 11.9737,15.7155 L11.9737,15.7155 Z" id="icon" fill="#79AD36"></path>
            </g>
        </g>
    </g>
</svg>