<?xml version="1.0" encoding="utf-8"?>
<!-- Generator: Adobe Illustrator 18.1.1, SVG Export Plug-In . SVG Version: 6.00 Build 0)  -->
<svg version="1.1" id="Layer_1" xmlns="http://www.w3.org/2000/svg" xmlns:xlink="http://www.w3.org/1999/xlink" x="0px" y="0px"
	 width="625px" height="240px" viewBox="0 0 625 240" enable-background="new 0 0 625 240" xml:space="preserve">
<linearGradient id="SVGID_1_" gradientUnits="userSpaceOnUse" x1="66.6191" y1="93.197" x2="399.5634" y2="93.197">
	<stop  offset="0" style="stop-color:#53A5C3"/>
	<stop  offset="1" style="stop-color:#00D1B2"/>
</linearGradient>
<path fill="url(#SVGID_1_)" d="M66.6,137.5V48.9h14.7v88.5H66.6z M94.4,137.5V48.9h14.7l18.6,54.8V48.9h13.4v88.5h-13.9l-19.4-57.6
	v57.6H94.4z M181.4,80.5V68.2c0-5.6-3.2-7.6-7.5-7.6s-7.5,2-7.5,7.6v6.1c0,4.6,1.5,6.6,5.7,9l10.4,5.8c8.5,4.8,13.5,8.7,13.5,18.2
	V120c0,13.7-8.5,18.5-21.9,18.5h-0.3c-13.4,0-21.9-4.7-21.9-18.5v-15.4h14.4V118c0,5.4,3.2,7.8,7.6,7.8c4.4,0,7.6-2.4,7.6-7.8v-7
	c0-4.6-1.4-6.8-5.8-9.2L165.5,96C156.9,91,152,87,152,77.8V66.1c0-13.2,9.6-18.2,21.8-18.2h0.3c12.1,0,21.8,5.1,21.8,18.2v14.4
	H181.4z M245.4,61.8h-14.8v75.6h-14.7V61.8h-14.8V48.9h44.3V61.8z M275.6,117.7h-16.2l-3.2,19.7h-14.2l16.4-88.5H277l16.7,88.5
	h-14.9L275.6,117.7z M301,137.5V48.9h14.7l18.6,54.8V48.9h13.4v88.5h-13.9l-19.4-57.6v57.6H301z M399.6,61.8h-14.8v75.6h-14.7V61.8
	h-14.8V48.9h44.3V61.8z"/>
<g>
	<path fill="#53A5C3" d="M111,168.7v51.1c0,13.4-8.9,18.7-22.3,18.7H66.1V150h22.6C102.2,150,111,155.3,111,168.7z M88.2,162.9h-7.5
		v62.7h7.5c4.8,0,8.1-1.8,8.1-8.1V171C96.3,164.6,93.1,162.9,88.2,162.9z"/>
	<path fill="#53A5C3" d="M123.2,238.5V150H162v12.9h-24.2v24.3h20.2V200h-20.2v25.6h24.5v12.9H123.2z"/>
	<path fill="#53A5C3" d="M199.6,181.6v-12.4c0-5.6-3.2-7.6-7.5-7.6s-7.5,2-7.5,7.6v6.1c0,4.6,1.5,6.6,5.7,9l10.4,5.8
		c8.5,4.8,13.5,8.7,13.5,18.2V221c0,13.7-8.5,18.5-21.9,18.5h-0.3c-13.4,0-21.9-4.7-21.9-18.5v-15.4h14.4V219c0,5.4,3.2,7.8,7.6,7.8
		c4.4,0,7.6-2.4,7.6-7.8v-7c0-4.6-1.4-6.8-5.8-9.2l-10.2-5.8c-8.6-4.9-13.5-9-13.5-18.2v-11.6c0-13.2,9.6-18.2,21.8-18.2h0.3
		c12.1,0,21.8,5.1,21.8,18.2v14.4H199.6z"/>
	<path fill="#53A5C3" d="M225.4,238.5V150H240v88.5H225.4z"/>
	<path fill="#53A5C3" d="M298.2,220.8c0,13.7-8.9,18.7-22.3,18.7h-1c-13.4,0-22.3-4.9-22.3-18.7v-53.1c0-13.2,8.9-18.7,22.3-18.7h1
		c13.4,0,22.3,5.6,22.3,18.7v12.7h-14.7v-10.4c0-6.3-3.3-8.1-8.1-8.1s-8.1,1.8-8.1,8.1v48.6c0,6.3,3.3,8.1,8.1,8.1s8.1-1.8,8.1-8.1
		v-13.2H275V193h23.3V220.8z"/>
	<path fill="#53A5C3" d="M310.1,238.5V150h14.7l18.6,54.8V150h13.4v88.5h-13.9l-19.4-57.6v57.6H310.1z"/>
	<path fill="#53A5C3" d="M428.9,162.9h-14.8v75.6h-14.7v-75.6h-14.8V150h44.3V162.9z"/>
	<path fill="#53A5C3" d="M457.8,148.9h1c13.4,0,22.3,5.3,22.3,18.7v53.1c0,13.4-8.9,18.7-22.3,18.7h-1c-13.4,0-22.3-5.3-22.3-18.7
		v-53.1C435.5,154.1,444.3,148.9,457.8,148.9z M458.3,226.6c4.8,0,8.1-1.8,8.1-8.1v-48.6c0-6.3-3.3-8.1-8.1-8.1s-8.1,1.8-8.1,8.1
		v48.6C450.2,224.8,453.5,226.6,458.3,226.6z"/>
	<path fill="#53A5C3" d="M514.9,148.9h1c13.4,0,22.3,5.3,22.3,18.7v53.1c0,13.4-8.9,18.7-22.3,18.7h-1c-13.4,0-22.3-5.3-22.3-18.7
		v-53.1C492.7,154.1,501.5,148.9,514.9,148.9z M515.4,226.6c4.8,0,8.1-1.8,8.1-8.1v-48.6c0-6.3-3.3-8.1-8.1-8.1
		c-4.8,0-8.1,1.8-8.1,8.1v48.6C507.3,224.8,510.6,226.6,515.4,226.6z"/>
	<path fill="#53A5C3" d="M587.7,238.5h-37.3V150H565v75.4h22.6V238.5z"/>
</g>
<g>
	<g>
		<g>
			<path fill="#4A4A4A" d="M615.8,183.5c-0.1,0-0.2,0-0.3,0c-0.7-0.1-1.2-0.4-1.6-1l-72.2-95.8c-1.8-2.4-1.3-5.7,1.1-7.5l2-1.5
				c0.9-0.7,2-1.1,3.2-1.1c1.7,0,3.3,0.8,4.3,2.1l72.2,95.8c0.8,1.1,0.6,2.7-0.5,3.5l-6.5,4.9C616.9,183.3,616.3,183.5,615.8,183.5z
				"/>
		</g>
	</g>
	<g>
		<path fill="#FFFFFF" d="M558.7,91.7l-6.5,4.9l-8.6-11.4c-0.9-1.3-0.7-3,0.6-4l2-1.5c1.3-0.9,3-0.7,4,0.6L558.7,91.7z"/>
	</g>
</g>
<linearGradient id="SVGID_2_" gradientUnits="userSpaceOnUse" x1="0.226" y1="22.3005" x2="199.6022" y2="22.3005">
	<stop  offset="0" style="stop-color:#FC475C"/>
	<stop  offset="1" style="stop-color:#FCA538"/>
</linearGradient>
<path fill="url(#SVGID_2_)" d="M37,26.5c0-0.4,0.3-0.6,0.6-0.6c0.2,0,0.4,0.1,0.5,0.3l3.1,4.7c0.1,0.2,0.4,0.3,0.7,0.2l5.4-1.5
	c0.6-0.2,1,0.5,0.6,0.9l-3.5,4.4c-0.2,0.2-0.2,0.5,0,0.7l3.1,4.6c0.3,0.5-0.2,1.1-0.7,0.9l-5.3-1.9c-0.2-0.1-0.5,0-0.7,0.2l-3.5,4.4
	c-0.4,0.5-1.1,0.2-1.1-0.4l0.2-5.6c0-0.3-0.1-0.5-0.4-0.6l-5.3-1.9c-0.5-0.2-0.5-1,0-1.1l5.4-1.5c0.3-0.1,0.4-0.3,0.4-0.6L37,26.5
	 M195,27.5l-3.2,3c-0.2,0.2-0.5,0.2-0.7,0.1l-3.8-2.1c-0.5-0.3-1.1,0.3-0.8,0.8l1.8,4c0.1,0.2,0.1,0.5-0.1,0.7l-3.2,3
	c-0.4,0.4-0.1,1.1,0.5,1l4.3-0.5c0.3,0,0.5,0.1,0.6,0.3l1.8,4c0.2,0.5,1,0.4,1.1-0.1l0.8-4.3c0-0.3,0.3-0.4,0.5-0.5l4.3-0.5
	c0.6-0.1,0.7-0.8,0.2-1.1l-3.8-2.1c-0.2-0.1-0.3-0.4-0.3-0.6L196,28c0.1-0.4-0.2-0.6-0.5-0.7C195.4,27.3,195.2,27.3,195,27.5
	 M158.4,8.1l-2.5,4.2c-0.1,0.2-0.4,0.3-0.7,0.3l-4.8-1.1c-0.6-0.1-1,0.5-0.6,1l3.2,3.7c0.2,0.2,0.2,0.5,0.1,0.7l-2.5,4.2
	c-0.3,0.5,0.2,1.1,0.8,0.9l4.5-1.9c0.2-0.1,0.5,0,0.7,0.2l3.2,3.7c0.4,0.4,1.1,0.1,1.1-0.4l-0.4-4.9c0-0.3,0.1-0.5,0.4-0.6l4.5-1.9
	c0.5-0.2,0.5-1-0.1-1.1l-4.8-1.1c-0.3-0.1-0.4-0.3-0.5-0.5l-0.4-4.9c0-0.3-0.3-0.5-0.6-0.5C158.8,7.8,158.6,7.9,158.4,8.1 M9.4,2.6
	l-0.6,7.7c0,0.3-0.2,0.6-0.6,0.7l-7.5,1.8c-0.7,0.2-0.8,1.1-0.1,1.4l7.2,2.9c0.3,0.1,0.5,0.4,0.4,0.7l-0.6,7.7
	C7.7,26.2,8.5,26.6,9,26l5-5.9c0.2-0.2,0.5-0.3,0.8-0.2l7.2,2.9c0.7,0.3,1.3-0.5,0.9-1.1l-4.1-6.6c-0.2-0.3-0.1-0.6,0.1-0.9l5-5.9
	c0.5-0.5,0-1.3-0.7-1.2l-7.5,1.8c-0.3,0.1-0.6-0.1-0.8-0.3l-4.1-6.6c-0.1-0.2-0.4-0.3-0.6-0.3C9.8,1.9,9.5,2.1,9.4,2.6 M66,6.7
	l-0.9,4.5c-0.1,0.3-0.3,0.4-0.5,0.5L60,12.2c-0.6,0.1-0.7,0.8-0.2,1.1l4,2.2c0.2,0.1,0.3,0.4,0.3,0.6l-0.9,4.5c-0.1,0.6,0.6,1,1,0.6
	l3.4-3.1c0.2-0.2,0.5-0.2,0.7-0.1l4,2.2c0.5,0.3,1.1-0.2,0.8-0.8l-1.9-4.2c-0.1-0.2-0.1-0.5,0.1-0.7l3.4-3.1c0.4-0.4,0.1-1.1-0.5-1
	L69.7,11c-0.3,0-0.5-0.1-0.6-0.3l-1.9-4.2c-0.1-0.2-0.3-0.3-0.5-0.3C66.3,6.2,66,6.4,66,6.7 M119.1,0.5c-0.3,0-0.5,0.1-0.7,0.3
	l-6.6,7.9c-0.2,0.3-0.7,0.4-1,0.3l-9.6-3.8c-0.8-0.3-1.6,0.6-1.1,1.3l5.5,8.7c0.2,0.3,0.2,0.8-0.1,1l-6.6,7.9
	c-0.6,0.7,0.1,1.7,0.9,1.4l10-2.5c0.4-0.1,0.8,0.1,1,0.4l5.5,8.7c0.5,0.7,1.6,0.4,1.7-0.4l0.7-10.3c0-0.4,0.3-0.7,0.7-0.8l10-2.5
	c0.8-0.2,0.9-1.4,0.1-1.7l-9.6-3.8c-0.4-0.1-0.6-0.5-0.6-0.9L120,1.4C120,0.9,119.6,0.5,119.1,0.5L119.1,0.5z"/>
<linearGradient id="SVGID_3_" gradientUnits="userSpaceOnUse" x1="407.855" y1="76.833" x2="598.6732" y2="76.833">
	<stop  offset="0" style="stop-color:#FCA538"/>
	<stop  offset="1" style="stop-color:#FC475C"/>
</linearGradient>
<path fill="url(#SVGID_3_)" d="M517.9,38l1.8,4.4c0.1,0.2,0.3,0.4,0.6,0.4l4.7-0.3c0.5,0,0.8,0.6,0.4,1l-3.6,3.1
	c-0.2,0.2-0.3,0.4-0.2,0.6l1.8,4.4c0.2,0.5-0.4,1-0.8,0.7l-4-2.5c-0.2-0.1-0.5-0.1-0.7,0l-3.6,3.1c-0.4,0.4-1,0-0.9-0.6l1.2-4.6
	c0.1-0.2,0-0.5-0.2-0.6l-4-2.5c-0.5-0.3-0.3-1,0.3-1l4.7-0.3c0.2,0,0.5-0.2,0.5-0.4l1.2-4.6C516.9,37.5,517.7,37.5,517.9,38z
	 M413.6,119.1l-0.3,4.7c0,0.2-0.2,0.5-0.4,0.5l-4.6,1.2c-0.5,0.1-0.6,0.9-0.1,1.1l4.4,1.7c0.2,0.1,0.4,0.3,0.4,0.6l-0.3,4.7
	c0,0.5,0.7,0.8,1,0.4l3-3.7c0.2-0.2,0.4-0.3,0.6-0.2l4.4,1.7c0.5,0.2,1-0.4,0.7-0.8l-2.6-4c-0.1-0.2-0.1-0.5,0-0.7l3-3.7
	c0.3-0.4-0.1-1-0.6-0.9l-4.6,1.2c-0.2,0.1-0.5,0-0.6-0.2l-2.6-4C414.3,118.4,413.6,118.6,413.6,119.1z M598.5,80.8l-4.1-5.7
	c-0.2-0.2-0.2-0.6,0-0.8l4.1-5.6c0.4-0.6-0.1-1.3-0.8-1.1l-6.6,2.1c-0.3,0.1-0.6,0-0.8-0.3l-4.1-5.7c-0.4-0.6-1.3-0.3-1.3,0.4l0,7
	c0,0.3-0.2,0.6-0.5,0.7l-6.6,2.1c-0.7,0.2-0.7,1.1,0,1.3l6.6,2.2c0.3,0.1,0.5,0.4,0.5,0.7l0,7c0,0.7,0.9,1,1.3,0.4l4.1-5.6
	c0.2-0.2,0.5-0.3,0.8-0.3l6.6,2.2C598.3,82.1,598.9,81.4,598.5,80.8z M570.3,32.5l0-12c0-1.1-1.4-1.5-2.1-0.7l-7,9.7
	c-0.3,0.4-0.8,0.6-1.3,0.4l-11.4-3.7c-1-0.3-1.9,0.9-1.3,1.7l7.1,9.7c0.3,0.4,0.3,0.9,0,1.3l-7,9.7c-0.6,0.9,0.2,2.1,1.3,1.7
	l11.4-3.8c0.5-0.2,1,0,1.3,0.4l7.1,9.7c0.6,0.9,2.1,0.4,2-0.7l0-12c0-0.5,0.3-0.9,0.8-1.1l11.4-3.8c1-0.3,1-1.8,0-2.2l-11.4-3.7
	C570.6,33.4,570.3,33,570.3,32.5z M519.6,75.9l-10.7,3.8c-0.5,0.2-1,0-1.3-0.4l-6.9-9c-0.7-0.9-2.1-0.4-2,0.7l0.3,11.4
	c0,0.5-0.3,0.9-0.8,1.1l-10.7,3.8c-1,0.4-1,1.8,0.1,2.2l10.9,3.2c0.5,0.1,0.8,0.6,0.8,1.1l0.3,11.4c0,1.1,1.4,1.5,2.1,0.6l6.4-9.4
	c0.3-0.4,0.8-0.6,1.3-0.4l10.9,3.2c1.1,0.3,1.9-0.9,1.2-1.8l-6.9-9c-0.3-0.4-0.3-0.9,0-1.3l6.4-9.4
	C521.5,76.7,520.6,75.5,519.6,75.9z M488.6,41.4l1.5-8.2c0.1-0.8-0.8-1.3-1.4-0.8l-6,5.7c-0.3,0.3-0.7,0.3-1,0.1l-7.3-4
	c-0.7-0.4-1.5,0.4-1.2,1.1l3.6,7.5c0.2,0.3,0.1,0.7-0.2,1l-6,5.7c-0.6,0.6-0.1,1.6,0.7,1.5l8.3-1.1c0.4,0,0.7,0.1,0.9,0.5l3.6,7.5
	c0.4,0.7,1.5,0.6,1.6-0.2l1.5-8.2c0.1-0.4,0.4-0.6,0.7-0.7l8.3-1.1c0.8-0.1,1-1.2,0.3-1.6l-7.3-4C488.7,42.2,488.5,41.8,488.6,41.4z
	 M453.7,108.4l-1-6.6c-0.1-0.8-1.2-1-1.6-0.3l-3,5.9c-0.2,0.3-0.5,0.5-0.9,0.5l-6.6-1c-0.8-0.1-1.3,0.9-0.7,1.4l4.7,4.7
	c0.3,0.3,0.3,0.7,0.2,1l-3,5.9c-0.4,0.7,0.4,1.5,1.1,1.1l5.9-3c0.3-0.2,0.7-0.1,1,0.2l4.7,4.7c0.6,0.6,1.6,0.1,1.4-0.7l-1-6.6
	c-0.1-0.4,0.1-0.7,0.5-0.9l5.9-3c0.7-0.4,0.6-1.5-0.3-1.6l-6.6-1C454.1,109,453.8,108.7,453.7,108.4z M460.1,79.3l-4.1-3
	c-0.5-0.4-1.2,0.1-1,0.7l1.5,4.9c0.1,0.3,0,0.6-0.2,0.7l-4.2,3c-0.5,0.4-0.3,1.2,0.4,1.2l5.1,0c0.3,0,0.5,0.2,0.6,0.5l1.5,4.9
	c0.2,0.6,1,0.6,1.2,0l1.6-4.9c0.1-0.3,0.3-0.4,0.6-0.4l5.1,0c0.6,0,0.9-0.8,0.4-1.2l-4.1-3c-0.2-0.2-0.3-0.5-0.2-0.7l1.6-4.9
	c0.2-0.6-0.5-1.1-1-0.7l-4.2,3C460.7,79.5,460.4,79.5,460.1,79.3z"/>
<path fill="#FFFFFF" d="M272.3,86.1l-0.4,7c0,0.3,0.2,0.6,0.5,0.7l6.6,2.6c0.6,0.2,0.6,1.2-0.1,1.4l-6.9,1.9
	c-0.3,0.1-0.5,0.3-0.5,0.6l-0.4,7.1c0,0.7-0.9,0.9-1.3,0.3l-3.8-5.9c-0.2-0.3-0.5-0.4-0.8-0.3l-6.8,1.8c-0.7,0.2-1.2-0.6-0.7-1.1
	l4.5-5.6c0.2-0.2,0.2-0.6,0.1-0.8l-3.8-6.1c-0.4-0.6,0.2-1.3,0.9-1l6.6,2.6c0.3,0.1,0.6,0,0.8-0.2l4.4-5.4
	C271.5,85.1,272.4,85.4,272.3,86.1z"/>
</svg>
