<svg id="logo" xmlns="http://www.w3.org/2000/svg" viewBox="0 0 483.12 144.53"><defs><style>.cls-1{fill:#fff;}.cls-2{fill:#3182ce;}.cls-3{fill:#dd6b20;}</style></defs><title>logonew-1</title><path class="cls-1" d="M97.31,172.77a14,14,0,0,1-6.88-1.83L45.81,145.46a13.91,13.91,0,0,1-7-12.05V82.59a13.89,13.89,0,0,1,7-12L90.43,45.06a13.85,13.85,0,0,1,13.76,0l44.63,25.48a13.9,13.9,0,0,1,7,12v50.82a13.9,13.9,0,0,1-7,12.05l-44.63,25.48A13.94,13.94,0,0,1,97.31,172.77Z" transform="translate(-31.31 -35.73)"/><path class="cls-2" d="M97.31,50.73a6.4,6.4,0,0,1,3.17.84L145.1,77.05a6.36,6.36,0,0,1,3.21,5.54v50.82A6.36,6.36,0,0,1,145.1,139l-44.62,25.48a6.38,6.38,0,0,1-6.33,0L49.53,139a6.37,6.37,0,0,1-3.22-5.54V82.59a6.37,6.37,0,0,1,3.22-5.54L94.15,51.57a6.36,6.36,0,0,1,3.16-.84m0-15a21.45,21.45,0,0,0-10.6,2.82L42.09,64A21.43,21.43,0,0,0,31.31,82.59v50.82A21.43,21.43,0,0,0,42.09,152l44.62,25.47a21.33,21.33,0,0,0,21.2,0L152.54,152a21.44,21.44,0,0,0,10.77-18.57V82.59A21.43,21.43,0,0,0,152.53,64L107.91,38.55a21.42,21.42,0,0,0-10.6-2.82Z" transform="translate(-31.31 -35.73)"/><path class="cls-3" d="M64.79,78.84H82.2l14.77,36h.69l14.77-36h17.41V137H116.15V101.28h-.48l-14,35.37H92.94L79,101.09h-.48V137H64.79Z" transform="translate(-31.31 -35.73)"/><path class="cls-3" d="M145.32,139a8.79,8.79,0,1,1,6.16-15,8.62,8.62,0,0,1,1.41,10.67,9.31,9.31,0,0,1-3.16,3.14A8.39,8.39,0,0,1,145.32,139Z" transform="translate(-31.31 -35.73)"/><path class="cls-1" d="M145.32,123.44a6.66,6.66,0,0,1,4.77,2,6.44,6.44,0,0,1,2,4.78,6.34,6.34,0,0,1-.95,3.42,7.32,7.32,0,0,1-2.48,2.47,6.41,6.41,0,0,1-3.38.92,6.78,6.78,0,0,1-4.82-11.59,6.62,6.62,0,0,1,4.82-2m0-4a10.65,10.65,0,0,0-7.64,3.15A10.79,10.79,0,0,0,145.32,141a10.42,10.42,0,0,0,5.44-1.49,11.35,11.35,0,0,0,3.83-3.81,10.3,10.3,0,0,0,1.54-5.51,10.47,10.47,0,0,0-3.25-7.65,10.69,10.69,0,0,0-7.56-3.12Z" transform="translate(-31.31 -35.73)"/><path class="cls-2" d="M186,137.85a18,18,0,0,1-7.44-1.47,11.65,11.65,0,0,1-5.15-4.34,12.88,12.88,0,0,1-1.89-7.2,12.72,12.72,0,0,1,1.33-6.11,10.73,10.73,0,0,1,3.64-4,17.62,17.62,0,0,1,5.24-2.27,39.81,39.81,0,0,1,6.18-1.08q3.81-.41,6.13-.75a8.74,8.74,0,0,0,3.39-1.07,2.36,2.36,0,0,0,1.05-2.1v-.17a5.29,5.29,0,0,0-1.69-4.18,7.09,7.09,0,0,0-4.79-1.48,8.51,8.51,0,0,0-5.2,1.44,6.75,6.75,0,0,0-2.56,3.59L173,105.77a15.45,15.45,0,0,1,3.35-6.89,16.24,16.24,0,0,1,6.47-4.48A24.54,24.54,0,0,1,192,92.82a28,28,0,0,1,7,.85,18.53,18.53,0,0,1,5.94,2.64,13,13,0,0,1,4.1,4.59,13.89,13.89,0,0,1,1.51,6.69V137H199.06V131h-.34a12.23,12.23,0,0,1-2.81,3.6,12.82,12.82,0,0,1-4.24,2.41A17.13,17.13,0,0,1,186,137.85Zm3.47-8.35a10.1,10.1,0,0,0,4.72-1.07,8.3,8.3,0,0,0,3.21-2.88,7.55,7.55,0,0,0,1.16-4.12V116.8a6.41,6.41,0,0,1-1.55.66,21.51,21.51,0,0,1-2.2.54c-.81.16-1.63.31-2.44.43l-2.22.33a14.8,14.8,0,0,0-3.72,1,6.13,6.13,0,0,0-2.47,1.83,4.55,4.55,0,0,0-.88,2.86,4.33,4.33,0,0,0,1.8,3.76A7.69,7.69,0,0,0,189.43,129.5Z" transform="translate(-31.31 -35.73)"/><path class="cls-2" d="M238.06,137.88A22.22,22.22,0,0,1,226.54,135a19,19,0,0,1-7.39-7.94,28,28,0,0,1,0-23.48,19.26,19.26,0,0,1,7.4-7.93A22,22,0,0,1,238,92.82a22.75,22.75,0,0,1,10,2.07,16.81,16.81,0,0,1,6.79,5.83,17.16,17.16,0,0,1,2.76,8.8H246.12a8.91,8.91,0,0,0-2.54-5.27,7.39,7.39,0,0,0-5.38-2,8.11,8.11,0,0,0-4.9,1.52,9.78,9.78,0,0,0-3.25,4.42,18.75,18.75,0,0,0-1.17,7,19.38,19.38,0,0,0,1.15,7.1,9.78,9.78,0,0,0,3.25,4.46,8.67,8.67,0,0,0,8.66.68,7.36,7.36,0,0,0,2.75-2.49,9.31,9.31,0,0,0,1.43-3.93h11.43a17.9,17.9,0,0,1-2.72,8.79,16.62,16.62,0,0,1-6.69,5.93A22.29,22.29,0,0,1,238.06,137.88Z" transform="translate(-31.31 -35.73)"/><path class="cls-2" d="M276.17,137.85a18,18,0,0,1-7.44-1.47,11.73,11.73,0,0,1-5.16-4.34,12.88,12.88,0,0,1-1.89-7.2,12.72,12.72,0,0,1,1.34-6.11,10.73,10.73,0,0,1,3.64-4,17.62,17.62,0,0,1,5.24-2.27,39.81,39.81,0,0,1,6.18-1.08c2.53-.27,4.58-.52,6.13-.75a8.62,8.62,0,0,0,3.38-1.07,2.36,2.36,0,0,0,1.05-2.1v-.17a5.25,5.25,0,0,0-1.69-4.18,7,7,0,0,0-4.78-1.48,8.51,8.51,0,0,0-5.2,1.44,6.75,6.75,0,0,0-2.56,3.59l-11.19-.91a15.34,15.34,0,0,1,3.35-6.89A16.27,16.27,0,0,1,273,94.4a24.61,24.61,0,0,1,9.19-1.58,28,28,0,0,1,7,.85,18.63,18.63,0,0,1,5.94,2.64,13,13,0,0,1,4.1,4.59,13.89,13.89,0,0,1,1.51,6.69V137H289.27V131h-.34a12.23,12.23,0,0,1-2.81,3.6,12.82,12.82,0,0,1-4.24,2.41A17.18,17.18,0,0,1,276.17,137.85Zm3.47-8.35a10,10,0,0,0,4.71-1.07,8.16,8.16,0,0,0,3.21-2.88,7.48,7.48,0,0,0,1.17-4.12V116.8a6.59,6.59,0,0,1-1.55.66,22.18,22.18,0,0,1-2.2.54c-.82.16-1.63.31-2.44.43l-2.22.33a14.8,14.8,0,0,0-3.72,1,6.06,6.06,0,0,0-2.47,1.83,4.55,4.55,0,0,0-.88,2.86,4.33,4.33,0,0,0,1.8,3.76A7.69,7.69,0,0,0,279.64,129.5Z" transform="translate(-31.31 -35.73)"/><path class="cls-2" d="M324.63,137.73a16.29,16.29,0,0,1-9-2.57,17.54,17.54,0,0,1-6.37-7.58,29,29,0,0,1-2.34-12.32,28.53,28.53,0,0,1,2.42-12.48,17.39,17.39,0,0,1,6.43-7.48,16.51,16.51,0,0,1,8.82-2.48,13.62,13.62,0,0,1,6.12,1.23,12.25,12.25,0,0,1,4,3.07,16,16,0,0,1,2.32,3.6h.37V78.84h12.07V137H337.53v-7H337a15.63,15.63,0,0,1-2.4,3.59,12.28,12.28,0,0,1-4,2.94A13.84,13.84,0,0,1,324.63,137.73Zm3.83-9.63a7.73,7.73,0,0,0,5-1.6,10.1,10.1,0,0,0,3.13-4.5,21.73,21.73,0,0,0,0-13.56,9.73,9.73,0,0,0-3.12-4.43,8,8,0,0,0-5-1.56,7.83,7.83,0,0,0-5,1.62,9.88,9.88,0,0,0-3.1,4.49,21.68,21.68,0,0,0,0,13.36,10.14,10.14,0,0,0,3.1,4.55A7.73,7.73,0,0,0,328.46,128.1Z" transform="translate(-31.31 -35.73)"/><path class="cls-2" d="M377.66,137.88a23.13,23.13,0,0,1-11.58-2.75,18.55,18.55,0,0,1-7.46-7.78A25.66,25.66,0,0,1,356,115.4a25.53,25.53,0,0,1,2.61-11.81A19.36,19.36,0,0,1,366,95.66a21.43,21.43,0,0,1,11.18-2.84,23.07,23.07,0,0,1,8.05,1.38,18.07,18.07,0,0,1,6.53,4.13,18.74,18.74,0,0,1,4.36,6.92,27.43,27.43,0,0,1,1.57,9.73v3.32H360.84v-7.5H386.3a9.27,9.27,0,0,0-1.14-4.63A8.31,8.31,0,0,0,382,103a10,10,0,0,0-9.52.12,9.09,9.09,0,0,0-3.31,3.38,9.7,9.7,0,0,0-1.22,4.7v7.13a12.08,12.08,0,0,0,1.21,5.6,8.57,8.57,0,0,0,3.42,3.63,10.28,10.28,0,0,0,5.26,1.28,11.42,11.42,0,0,0,3.69-.57,7.66,7.66,0,0,0,2.87-1.7,7.47,7.47,0,0,0,1.82-2.78l11.19.73a15.25,15.25,0,0,1-3.48,7,17.33,17.33,0,0,1-6.76,4.66A25.37,25.37,0,0,1,377.66,137.88Z" transform="translate(-31.31 -35.73)"/><path class="cls-2" d="M404,137V93.39h11.54v7.7H416A12.09,12.09,0,0,1,420.58,95a13,13,0,0,1,7.61-2.21,12.86,12.86,0,0,1,7.64,2.23,10.71,10.71,0,0,1,4.21,6h.45a11.68,11.68,0,0,1,4.84-6,15,15,0,0,1,8.31-2.26,13.29,13.29,0,0,1,9.93,3.88q3.82,3.87,3.82,11V137H455.32v-27a7.13,7.13,0,0,0-1.93-5.45,6.79,6.79,0,0,0-4.83-1.82,6.5,6.5,0,0,0-5.14,2.09,8,8,0,0,0-1.85,5.5V137H429.84V109.81a7,7,0,0,0-1.84-5.12,6.39,6.39,0,0,0-4.81-1.9,6.67,6.67,0,0,0-3.62,1,7.16,7.16,0,0,0-2.55,2.81,9.08,9.08,0,0,0-.93,4.22V137Z" transform="translate(-31.31 -35.73)"/><path class="cls-2" d="M481.22,153.3a25.3,25.3,0,0,1-4.3-.35,17.94,17.94,0,0,1-3.31-.87l2.72-9.06a10.9,10.9,0,0,0,5.42.52q2.19-.47,3.48-3.42l.71-1.85L470.28,93.39H483l9,32h.46l9.12-32,12.81,0-17,48.3a20.25,20.25,0,0,1-3.31,6.09,14,14,0,0,1-5.27,4A18.69,18.69,0,0,1,481.22,153.3Z" transform="translate(-31.31 -35.73)"/></svg>