<svg width="244" height="41" viewBox="0 0 244 41" fill="none" xmlns="http://www.w3.org/2000/svg">
<path d="M0 3.77612H7.74119L15.2936 22.3739L22.6571 3.77612H30.3039V30.5871H23.79V14.5383L17.7481 30.5871H12.4614L6.51393 14.4439V30.5871H0V3.77612Z" fill="#00ABEE"/>
<path d="M54.5661 30.5869H48.0522V27.6604C46.7305 29.4541 44.4648 30.7757 41.6326 30.7757C36.7236 30.7757 33.4194 27.3772 33.4194 21.7129V9.25146H39.9334V20.8632C39.9334 23.7898 41.5382 25.3947 43.9928 25.3947C46.5417 25.3947 48.1466 23.7898 48.1466 20.8632V9.25146H54.6605V30.5869H54.5661Z" fill="#00ABEE"/>
<path d="M57.7759 2.3606H64.2898V30.5876H57.7759V2.3606Z" fill="#00ABEE"/>
<path d="M68.5379 14.7266H65.8945V9.2511H68.5379V4.05884H75.0518V9.2511H79.3V14.6322H75.0518V23.223C75.0518 24.4503 75.6182 25.0167 77.0343 25.0167H79.3944V30.5866H76.0902C71.6532 30.5866 68.5379 28.6985 68.5379 23.1286V14.7266Z" fill="#00ABEE"/>
<path d="M80.9048 3.58738C80.9048 1.60488 82.5097 0 84.7754 0C87.0411 0 88.646 1.60488 88.646 3.58738C88.646 5.56988 87.0411 7.08036 84.7754 7.08036C82.4153 7.08036 80.9048 5.47547 80.9048 3.58738ZM81.4712 9.25166H87.9851V30.5871H81.4712V9.25166Z" fill="#00ABEE"/>
<path d="M100.918 30.8701C95.1597 30.8701 90.6283 28.038 90.4395 22.5625H97.4254C97.6142 24.6394 98.9359 25.5835 100.73 25.5835C102.618 25.5835 103.845 24.6394 103.845 23.0345C103.845 18.0311 90.4395 20.7688 90.5339 11.234C90.5339 6.1361 94.6877 3.30396 100.352 3.30396C106.205 3.30396 110.17 6.2305 110.359 11.3284H103.278C103.184 9.62907 101.957 8.59062 100.163 8.49622C98.5583 8.49622 97.4254 9.25145 97.4254 10.9507C97.4254 15.5766 110.642 13.4997 110.642 22.4681C110.736 27.094 107.149 30.8701 100.918 30.8701Z" fill="#004A71"/>
<path d="M121.31 8.96875C124.52 8.96875 126.691 10.3848 127.918 12.2729V9.25196H134.432V30.5874H127.918V27.5665C126.691 29.4546 124.52 30.8707 121.31 30.8707C116.118 30.8707 111.964 26.6224 111.964 19.8253C111.87 13.217 116.023 8.96875 121.31 8.96875ZM123.198 14.633C120.744 14.633 118.572 16.4267 118.572 19.8253C118.572 23.2239 120.744 25.112 123.198 25.112C125.653 25.112 127.824 23.2239 127.824 19.8253C127.824 16.5211 125.653 14.633 123.198 14.633Z" fill="#004A71"/>
<path d="M138.209 14.7274H135.849V9.25188H138.209V8.68545C138.209 3.11557 141.607 0.377832 148.121 0.661046V6.23093C145.572 6.04212 144.723 6.79736 144.723 9.06307V9.25188H148.216V14.6329H144.723V30.4929H138.209V14.7274Z" fill="#004A71"/>
<path d="M159.261 30.8707C153.03 30.8707 148.499 26.6224 148.499 19.9197C148.499 13.1226 152.936 8.96875 159.261 8.96875C165.491 8.96875 169.834 13.1226 169.834 19.5421C169.834 20.1085 169.834 20.7693 169.74 21.4302H154.918C155.107 24.2623 156.901 25.4896 158.977 25.4896C160.771 25.4896 161.81 24.5455 162.376 23.4127H169.362C168.418 27.6609 164.642 30.8707 159.261 30.8707ZM155.012 17.8428H163.226C163.226 15.4827 161.432 14.161 159.261 14.161C157.089 14.2554 155.39 15.4827 155.012 17.8428Z" fill="#004A71"/>
<path d="M184.939 8.96875C190.131 8.96875 194.379 13.217 194.379 19.9197C194.379 26.6224 190.225 30.9651 184.939 30.9651C181.823 30.9651 179.558 29.4546 178.33 27.6609V40.7831H171.816V9.25196H178.33V12.2729C179.558 10.3848 181.823 8.96875 184.939 8.96875ZM182.956 14.633C180.502 14.633 178.33 16.5211 178.33 19.9197C178.33 23.3183 180.502 25.2064 182.956 25.2064C185.411 25.2064 187.676 23.3183 187.676 19.9197C187.676 16.5211 185.411 14.633 182.956 14.633Z" fill="#004A71"/>
<path d="M205.047 8.96875C208.257 8.96875 210.428 10.3848 211.656 12.2729V9.25196H218.17V30.5874H211.656V27.5665C210.428 29.4546 208.257 30.8707 205.047 30.8707C199.855 30.8707 195.701 26.6224 195.701 19.8253C195.701 13.217 199.855 8.96875 205.047 8.96875ZM207.03 14.633C204.575 14.633 202.404 16.4267 202.404 19.8253C202.404 23.2239 204.575 25.112 207.03 25.112C209.484 25.112 211.656 23.2239 211.656 19.8253C211.656 16.5211 209.484 14.633 207.03 14.633Z" fill="#004A71"/>
<path d="M236.861 9.25146H243.942L230.536 40.6882H223.55L228.459 29.8317L219.774 9.25146H227.043L231.952 22.5625L236.861 9.25146Z" fill="#004A71"/>
</svg>
