<?xml version="1.0" encoding="utf-8"?>
<!-- Generator: Adobe Illustrator 22.1.0, SVG Export Plug-In . SVG Version: 6.00 Build 0)  -->
<svg version="1.1" id="Ebene_1" xmlns="http://www.w3.org/2000/svg" xmlns:xlink="http://www.w3.org/1999/xlink" x="0px" y="0px"
	 viewBox="0 0 240.9 100.7" style="enable-background:new 0 0 240.9 100.7;" xml:space="preserve">
<style type="text/css">
	.st0{fill:#AEB6BC;}
	.st1{fill:#68AEE3;}
	.st2{fill:#205095;}
	.st3{fill:#FFFFFF;}
</style>
<g>
	<g>
		<path class="st0" d="M173.8,92.6l-3.3-4.2l7.2,9.3c1.5,2,3.9,3,6.6,2.9c1.9,0,3.5-0.6,5.2-1.7l21.2-12.8L173.8,92.6z"/>
		<path class="st0" d="M145.6,30.9l42.2-19.4l34.9-2.8l5.5,16.3l-5.5-16.3c-0.8-2.2-1.7-5.5-3.4-6.8c-1.3-1.2-3.1-1.9-5-1.9
			c-0.8,0-1.6,0.1-2.3,0.4c-1,0.5-72.9,33.4-72.9,33.4l-0.1,0c-3,1.6-5.1,6.9-2.7,10.2l19.4,25.2L145.6,30.9z"/>
		<path class="st0" d="M240.5,61.3L240.5,61.3l-5.4-16l-3.4,28.3l5.1-3.1c2.5-1.2,4.2-3.8,4.2-6.7C240.9,62.9,240.8,62,240.5,61.3z"
			/>
	</g>
	<path class="st1" d="M155.8,69.2l-1.5-5.7l6.4,24c0.6,2.4,2.1,4.3,4.6,5.2c1.7,0.7,3.9,0.7,5.7,0.3l3-0.5L155.8,69.2z"/>
	<path class="st1" d="M187.8,11.5l-38.2,2.3c-2.4,0.3-4.2,1.6-5.5,4.1c-1.2,2.1-0.7,4.5-0.7,4.5l2.2,8.4L187.8,11.5z"/>
	<path class="st1" d="M210.7,86.2l14-2.4c2.8-0.6,4.2-1.5,5.1-2.7c0.9-1.2,1.2-2.3,1.4-4.2l0.4-3.3L210.7,86.2z"/>
	<path class="st1" d="M230.4,8.3l-7.7,0.5l12.4,36.5l3.1-27.8C238.9,13.1,235.7,7.9,230.4,8.3z"/>
	<g>
		<path class="st2" d="M222.7,8.8l-34.9,2.8l-42.2,19.4l10.2,38.3l18.1,23.4l36.9-6.5l20.9-12.6l3.4-28.3L222.7,8.8z"/>
	</g>
	<g>
		<path class="st3" d="M214.2,50.7c3.6-2,4.8-4.9,4.8-8.5c0-6.8-3.7-10.5-12-10.5c-7.8,0-12,3.6-12,10.2c0,4.1,1.8,6.7,4.4,8.5
			c-3.8,1.9-5.8,5.1-5.8,9.7c0,7.1,4.3,10.7,13.4,10.7c9.2,0,13.3-3.3,13.3-10.7C220.3,55.4,217.6,52.6,214.2,50.7z M207,37
			c3.9,0,5.4,1.8,5.4,5.3c0,2.6-0.9,4.7-3.4,6.3c-6.3-2.3-7.5-3.5-7.5-6.6C201.5,38.8,203.1,37,207,37z M207,65.3
			c-4.7,0-6.8-1.7-6.8-5.4c0-3.4,1.4-5.6,4.2-7.3c7.2,2.5,9.4,4.2,9.4,7.3C213.7,63.8,211.7,65.3,207,65.3z"/>
		<path class="st3" d="M176.4,31.6c-7.5,0-12.3,4.3-12.3,11.9v1.7c0,6.2,3.1,10.5,11.2,10.5c2.4,0,5.2-0.5,7.1-1.2v1.7
			c0,5.5-1.7,9.1-7.4,9.1c-2.3,0-4.9-0.2-7.1-0.6c-0.6-0.1-0.9,0.2-0.9,0.8v3c0,0.4,0.2,0.7,0.7,0.9c2.3,0.8,5.5,1.3,8.4,1.3
			c9.2,0,12.9-6.5,12.9-15V44C189,36.3,185.1,31.6,176.4,31.6z M182.4,50c-1.6,0.2-3.7,0.3-5.5,0.3c-4.6,0-6.3-2-6.3-5.7v-1.1
			c0-4.2,1.8-6.5,6-6.5c4.3,0,5.7,2.7,5.7,6.8V50z"/>
	</g>
	<g>
		<path class="st2" d="M20.7,32.5l-0.5,0c-2.9,0-4.1,0.2-7.2,2.6c-1.6,1.2-4.8,4.2-7.5,6.7v-7.1c0-1.5-1.2-2.8-2.8-2.8
			S0,33.1,0,34.7v32.7c0,1.5,1.2,2.8,2.8,2.8s2.8-1.2,2.8-2.8V49.2c1.4-1.3,8.5-8,10.9-9.8c1.8-1.4,1.9-1.4,3.8-1.4l0.5,0
			c3.3,0,6.1,2.5,6.1,5.4v24c0,1.5,1.2,2.8,2.8,2.8c1.5,0,2.8-1.2,2.8-2.8v-24C32.3,37.5,27,32.5,20.7,32.5z"/>
		<path class="st2" d="M56.3,31.6c-0.1,0-3.1,0-3.1,0c-7.4,0-13.8,7.4-13.8,11v7.3v0.3v8.3c0,3.4,5.6,11.4,13.2,11.4h11.6
			c1.5,0,2.8-1.2,2.8-2.8s-1.2-2.8-2.8-2.8H52.7c-4,0-7.4-4.6-7.7-6V53h22c0,0,2.8,0.1,2.8-2.8v-7.7C69.8,39,63.6,31.8,56.3,31.6z
			 M53.3,37.1h0.1H56c4.1,0,7.8,4.4,8.3,5.7v4.5c-0.1,0-0.2,0-0.3,0H45v-4.4C45.4,41.5,49.1,37.1,53.3,37.1z"/>
		<path class="st2" d="M91.6,31.9h-7.5l0.1-7.8c0-1.5-1.2-2.8-2.7-2.8c0,0,0,0,0,0c-1.5,0-2.7,1.2-2.8,2.7l-0.3,37
			c-0.1,0.8-0.1,3.7,2.1,6.2c1.8,2.1,4.7,3.1,8.3,3.1c1.5,0,2.8-1.2,2.8-2.8s-1.2-2.8-2.8-2.8c-1.4,0-3.2-0.2-4.2-1.2
			c-0.8-0.9-0.7-2.1-0.7-2.1c0,0,0,0,0,0c0-0.1,0-0.2,0-0.3L84,37.4h7.6c1.5,0,2.8-1.2,2.8-2.8C94.3,33.1,93.1,31.9,91.6,31.9z"/>
		<path class="st2" d="M127.8,64.8h-21.1l0.2-3.4l22.2-19.6c0.6-0.5,0.9-1.2,0.9-2l0.2-5.1c0-0.7-0.3-1.5-0.8-2
			c-0.5-0.5-1.2-0.8-2-0.8l-22.7-0.2c0,0,0,0,0,0c-1.5,0-2.7,1.2-2.8,2.7c0,1.5,1.2,2.8,2.7,2.8l19.8,0.1l0,1.1L102.5,58
			c-0.5,0.5-0.9,1.2-0.9,1.9l-0.5,7.5c0,0.8,0.2,1.5,0.7,2.1c0.5,0.6,1.2,0.9,2,0.9h24c1.5,0,2.8-1.2,2.8-2.8S129.4,64.8,127.8,64.8
			z"/>
	</g>
</g>
</svg>
