<?xml version="1.0" encoding="UTF-8"?>
<svg width="133px" height="32px" viewBox="0 0 133 32" version="1.1" xmlns="http://www.w3.org/2000/svg" xmlns:xlink="http://www.w3.org/1999/xlink">
    <title>Combined Shape</title>
    <g id="Components" stroke="none" stroke-width="1" fill="none" fill-rule="evenodd">
        <g id="Components/Logos/Skwirrel" transform="translate(1.000000, 0.000000)" fill="#282828">
            <path d="M73.4624075,5.5948748 L71.0865818,5.5948748 C70.2049415,5.5948748 69.4773228,4.90531883 69.4773228,3.98561581 L69.4773228,1.6097901 C69.4773228,0.728149861 70.2049415,-0.000354072386 71.0865818,-0.000354072386 L73.4624075,-0.000354072386 C74.3440477,-0.000354072386 75.0716665,0.728149861 75.0716665,1.6097901 L75.0716665,3.98561581 C75.0716665,4.90531883 74.3440477,5.5948748 73.4624075,5.5948748 M77.9843544,30.887062 L77.9843544,9.5418082 C77.9843544,9.19747281 78.290627,8.89031501 78.6358476,8.89031501 L82.5448068,8.89031501 C82.8891421,8.89031501 83.1962999,9.19747281 83.1962999,9.5418082 L83.1962999,13.5277781 C83.6946568,10.6916583 85.2269051,8.89031501 88.0630249,8.89031501 L89.1358642,8.89031501 C89.4810848,8.89031501 89.7873574,9.19747281 89.7873574,9.5418082 L89.7873574,13.6419664 C89.7873574,13.987187 89.4810848,14.2553968 89.1358642,14.2553968 L88.0630249,14.2553968 C85.2269051,14.2553968 83.1962999,14.8688272 83.1962999,17.7810726 L83.1962999,30.887062 C83.1962999,31.2322825 82.8891421,31.5004924 82.5448068,31.5004924 L78.6358476,31.5004924 C78.290627,31.5004924 77.9843544,31.2322825 77.9843544,30.887062 M130.408223,2.75910907 L126.423139,2.75910907 C126.077918,2.75910907 125.809708,3.0273189 125.809708,3.37253947 L125.809708,30.8875046 C125.809708,31.23184 126.077918,31.5000498 126.423139,31.5000498 L130.408223,31.5000498 C130.753444,31.5000498 131.021654,31.23184 131.021654,30.8875046 L131.021654,3.37253947 C131.021654,3.0273189 130.753444,2.75910907 130.408223,2.75910907 M103.31487,8.89049205 L102.203968,8.89049205 C99.367848,8.89049205 97.8347146,10.7298981 97.3363577,13.5270699 L97.3363577,9.54198524 C97.3363577,9.19676466 97.0681479,8.89049205 96.7238125,8.89049205 L92.7378426,8.89049205 C92.3935072,8.89049205 92.1252974,9.19676466 92.1252974,9.54198524 L92.1252974,30.887239 C92.1252974,31.2315744 92.3935072,31.4997842 92.7378426,31.4997842 L96.7238125,31.4997842 C97.0681479,31.4997842 97.3363577,31.2315744 97.3363577,30.887239 L97.3363577,17.7812497 C97.3363577,14.8690043 99.4829215,14.2555739 102.203968,14.2555739 L103.31487,14.2555739 C103.660091,14.2555739 103.9283,13.987364 103.9283,13.6421435 L103.9283,9.54198524 C103.9283,9.19676466 103.660091,8.89049205 103.31487,8.89049205 M74.2671255,8.89049205 L70.2820408,8.89049205 C69.9368202,8.89049205 69.6686104,9.19676466 69.6686104,9.54198524 L69.6686104,30.887239 C69.6686104,31.2315744 69.9368202,31.4997842 70.2820408,31.4997842 L74.2671255,31.4997842 C74.6123461,31.4997842 74.8805559,31.2315744 74.8805559,30.887239 L74.8805559,9.54198524 C74.8805559,9.19676466 74.6123461,8.89049205 74.2671255,8.89049205 M37.7374775,30.5499851 L30.8109364,17.7812497 L37.0567733,9.9252686 C37.3639311,9.50392246 37.0948361,8.89049205 36.5584164,8.89049205 L32.4582582,8.89049205 C32.1519856,8.89049205 31.8448278,9.04362836 31.6155659,9.31183819 L24.5261516,18.2796065 L24.5261516,3.4103367 C24.5261516,3.05183841 24.2322715,2.75884351 23.8746584,2.75884351 L19.9656992,2.75884351 C19.6072009,2.75884351 19.314206,3.05183841 19.314206,3.4103367 L19.314206,30.887239 C19.314206,31.2253781 19.5886121,31.5006694 19.9276365,31.5006694 L23.8746584,31.5006694 C24.2322715,31.5006694 24.5261516,31.2067893 24.5261516,30.8491762 L24.5261516,24.4493179 L27.1701871,21.1537891 L32.1900484,31.1554488 C32.3051219,31.3855959 32.5352689,31.5006694 32.7645308,31.5006694 L37.1718468,31.5006694 C37.6595815,31.5006694 37.97028,30.9784126 37.7374775,30.5499851 M12.9143477,11.8412428 L14.7537537,11.8412428 C15.7115195,11.8412428 16.4780862,11.0746761 16.4780862,10.1549731 L16.4780862,8.73691315 C16.4780862,5.28824812 13.6809144,2.49107627 10.2322494,2.49107627 L6.24627947,2.49107627 C2.79761444,2.49107627 -0.000442590482,5.28824812 -0.000442590482,8.73691315 L-0.000442590482,11.9943791 C-0.000442590482,12.9140821 0.766124125,13.6806488 1.72477511,13.6806488 L3.56418115,13.6806488 C4.48388417,13.6806488 5.25045089,14.4472156 5.25045089,15.3669186 L5.25045089,17.9339434 C5.25045089,18.8925944 6.01613242,19.6591611 6.97478341,19.6591611 L9.5418082,19.6591611 C10.4615112,19.6591611 11.2280779,20.4248426 11.2280779,21.3445456 L11.2280779,25.2535048 C11.2280779,26.2121557 10.4615112,26.9778373 9.5418082,26.9778373 L6.97478341,26.9778373 C6.01613242,26.9778373 5.25045089,26.2121557 5.25045089,25.2535048 L5.25045089,23.2228996 C5.25045089,22.2642486 4.48388417,21.4985671 3.56418115,21.4985671 L1.72477511,21.4985671 C0.766124125,21.4985671 -0.000442590482,22.2642486 -0.000442590482,23.2228996 L-0.000442590482,25.5606626 C-0.000442590482,29.0093276 2.79761444,31.7303739 6.20821669,31.7684367 L10.2322494,31.7684367 C13.6809144,31.8064994 16.4780862,29.0093276 16.4780862,25.5606626 L16.4780862,21.3445456 C16.4780862,20.4248426 15.7115195,19.6591611 14.7918165,19.6591611 L12.9143477,19.6591611 C11.9946447,19.6591611 11.2280779,18.8925944 11.2280779,17.9339434 L11.2280779,15.3669186 C11.2280779,14.4472156 10.4615112,13.6806488 9.5418082,13.6806488 L6.97478341,13.6806488 C6.01613242,13.6806488 5.25045089,12.9140821 5.25045089,11.9943791 L5.25045089,9.00600817 C5.25045089,8.04735718 6.01613242,7.28167565 6.97478341,7.28167565 L9.5418082,7.28167565 C10.4615112,7.28167565 11.2280779,8.04735718 11.2280779,9.00600817 L11.2280779,10.1549731 C11.2280779,11.0746761 11.9946447,11.8412428 12.9143477,11.8412428 M53.0178253,14.3414364 L56.8887217,31.0403753 C56.9648473,31.3085851 57.1949943,31.4997842 57.5012669,31.4997842 L63.058433,31.4997842 C63.3266428,31.4997842 63.5948527,31.3085851 63.6709782,31.0403753 L67.5418746,9.69512155 C67.6569481,9.27377541 67.3497903,8.89049205 66.9284442,8.89049205 L63.3266428,8.89049205 C63.058433,8.89049205 62.7902232,9.1206391 62.7132124,9.38884893 L59.8390298,26.7870808 L56.009737,9.38884893 C55.9327262,9.08169114 55.7025792,8.89049205 55.3963066,8.89049205 L50.6393441,8.89049205 C50.3330715,8.89049205 50.1029244,9.08169114 50.0259137,9.38884893 L46.1966208,26.7870808 L43.3224382,9.38884893 C43.2454275,9.1206391 42.9772177,8.89049205 42.7090078,8.89049205 L39.1072065,8.89049205 C38.6858603,8.89049205 38.3787025,9.27377541 38.4937761,9.69512155 L42.3646724,31.0403753 C42.440798,31.3085851 42.7090078,31.4997842 42.9772177,31.4997842 L48.5343837,31.4997842 C48.8406564,31.4997842 49.0708034,31.3085851 49.146929,31.0403753 L53.0178253,14.3414364 Z M118.221937,18.2026843 C118.221937,13.9493898 116.727752,12.4162563 114.082831,12.4162563 C109.752526,12.4162563 109.94461,18.2026843 109.94461,18.2026843 L118.221937,18.2026843 Z M114.351041,8.39222369 C121.823738,8.39222369 123.241798,14.1405889 123.241798,20.1952267 L123.241798,20.8086571 C123.241798,21.1919404 122.973588,21.4601503 122.629253,21.4601503 L109.94461,21.4601503 C109.94461,21.4601503 109.714463,27.7467055 114.811335,27.7467055 C116.995961,27.7467055 118.720294,27.0571495 119.94627,25.2558062 C120.176417,24.9486484 120.674773,24.9105857 120.942983,25.2168583 L122.897463,27.2483486 C123.088662,27.4784956 123.126725,27.822831 122.935526,28.0529781 C121.019109,30.8120871 118.106863,32 114.734324,32 C108.296403,32 104.809675,27.5917988 104.809675,20.1952267 C104.809675,13.2589486 107.415648,8.39222369 114.351041,8.39222369 L114.351041,8.39222369 Z" id="Combined-Shape"></path>
        </g>
    </g>
</svg>