<?xml version="1.0" encoding="utf-8"?>
<!-- Generator: Adobe Illustrator 25.2.2, SVG Export Plug-In . SVG Version: 6.00 Build 0)  -->
<svg version="1.1" id="Laag_1" xmlns="http://www.w3.org/2000/svg" xmlns:xlink="http://www.w3.org/1999/xlink" x="0px" y="0px"
	 viewBox="0 0 113.4 22.4" style="enable-background:new 0 0 113.4 22.4;" xml:space="preserve">
<style type="text/css">
	.st0{fill:#333840;}
	.st1{fill:#EA515C;}
</style>
<g>
	<g>
		<path class="st0" d="M8.9,1.6C8.3,1,7.2,0.4,6.4,0.4l-5.7,0c-0.8,0-1,0.5-0.4,1.1l7.4,8.3L12,5.1L8.9,1.6z"/>
		<path class="st0" d="M17.4,20.6c0.6,0.6,1.7,1.1,2.4,1.1l5.7,0c0.8,0,1-0.5,0.4-1.1l-7.4-8.3l-4.3,4.8L17.4,20.6z"/>
	</g>
	<path class="st1" d="M17.5,1.6c0.6-0.6,1.7-1.1,2.4-1.1l5.7,0c0.8,0,1,0.5,0.4,1.1L8.9,20.6c-0.6,0.6-1.7,1.1-2.4,1.1l-5.7,0
		c-0.8,0-1-0.5-0.4-1.1L17.5,1.6z"/>
	<g>
		<g>
			<path class="st0" d="M48.6,4.6l-4.2,3.1c-1.2-1.5-2.9-2.4-5-2.3c-3.1,0-5.2,2.4-5.2,5.9c0,3.5,2.2,5.9,5.2,5.9
				c2.2,0,4-0.9,5.1-2.6l4.3,2.9c-1.8,3.1-5.3,4.8-9.7,4.8c-6.6,0-11.2-4.5-11.2-11.1C27.8,4.6,32.4,0,39.1,0
				C43.3,0,46.6,1.7,48.6,4.6z"/>
			<path class="st0" d="M73.7,11.2c0,6.7-4.7,11.2-11.7,11.2c-7,0-11.8-4.5-11.8-11.2C50.2,4.5,55,0,62,0C69,0,73.7,4.5,73.7,11.2z
				 M56.6,11.3c0,3.6,2.2,6,5.5,6c3.2,0,5.5-2.4,5.5-6c0-3.6-2.2-6-5.5-6C58.7,5.3,56.6,7.7,56.6,11.3z"/>
			<path class="st0" d="M83,4.2C84.5,1.5,87,0,90.3,0v5.9c-4.5-0.4-7.2,2-7.2,5.7v10.5h-6.3V0.2H83V4.2z"/>
			<path class="st0" d="M113.3,13.1H97.6c0.7,2.8,2.9,4.4,5.7,4.4c2.1,0,4-0.8,5.5-2.3l3.3,3.3c-2.2,2.4-5.4,3.9-9.4,3.9
				c-7,0-11.4-4.5-11.4-11.1C91.3,4.5,95.9,0,102.6,0C110.3,0,113.9,5.1,113.3,13.1z M107.5,9.4c-0.1-2.9-2-4.8-4.8-4.8
				c-2.8,0-4.6,1.9-5.1,4.8H107.5z"/>
		</g>
	</g>
</g>
</svg>
