<?xml version="1.0" encoding="UTF-8" standalone="no"?>
<svg
   xmlns:dc="http://purl.org/dc/elements/1.1/"
   xmlns:cc="http://creativecommons.org/ns#"
   xmlns:rdf="http://www.w3.org/1999/02/22-rdf-syntax-ns#"
   xmlns:svg="http://www.w3.org/2000/svg"
   xmlns="http://www.w3.org/2000/svg"
   viewBox="0 0 331.58667 284.79999"
   height="284.79999"
   width="331.58667"
   xml:space="preserve"
   id="svg2"
   version="1.1"><metadata
     id="metadata8"><rdf:RDF><cc:Work
         rdf:about=""><dc:format>image/svg+xml</dc:format><dc:type
           rdf:resource="http://purl.org/dc/dcmitype/StillImage" /></cc:Work></rdf:RDF></metadata><defs
     id="defs6"><clipPath
       id="clipPath20"
       clipPathUnits="userSpaceOnUse"><path
         id="path18"
         d="M 0,2135.95 V 0 h 2486.94 v 2135.95 z" /></clipPath></defs><g
     transform="matrix(1.3333333,0,0,-1.3333333,0,284.8)"
     id="g10"><g
       transform="scale(0.1)"
       id="g12"><g
         id="g14"><g
           clip-path="url(#clipPath20)"
           id="g16"><path
             id="path22"
             style="fill:#242323;fill-opacity:1;fill-rule:nonzero;stroke:none"
             d="m 2444.76,91.3789 c 23.22,0 42.18,-19.0078 42.18,-42.3086 0,-23.332 -18.96,-41.73046 -42.18,-41.73046 h -240.21 c -26.25,0 -47.05,20.85936 -47.05,47.21876 V 389.449 c 0,26.383 20.8,47.211 47.05,47.211 h 237.15 c 23.24,0 42.18,-19.012 42.18,-42.308 0,-23.293 -18.94,-41.711 -42.18,-41.711 h -190.69 v -87.082 h 163.2 c 23.21,0 42.15,-19.008 42.15,-42.34 0,-23.289 -18.94,-41.668 -42.15,-41.668 h -163.2 V 91.3789 Z M 2025.34,440.371 c 25.67,0 46.46,-19.641 46.46,-45.383 0,-5.539 -1.87,-12.906 -3.7,-18.418 L 1948.29,39.25 C 1939.72,15.3203 1922.04,0.609375 1899.4,0.609375 h -9.74 c -22.64,0 -39.79,14.082025 -48.3,38.640625 L 1757,285.199 1672.63,39.25 C 1664.1,14.6914 1646.97,0.609375 1624.32,0.609375 h -9.76 c -22.63,0 -40.31,14.710925 -48.9,38.640625 l -119.79,337.32 c -1.82,5.512 -3.68,12.239 -3.68,17.782 0,26.378 22.02,46.019 48.31,46.019 22.03,0 39.75,-14.121 45.83,-33.742 l 84.96,-263.117 85.58,260.687 c 7.3,22.051 23.86,37.379 47.68,37.379 h 7.32 c 23.88,0 40.36,-14.707 47.68,-37.379 l 85.58,-260.687 84.97,263.117 c 6.12,18.402 22.03,33.742 45.24,33.742 z M 1315.5,440.34 c 26.32,0 47.11,-20.852 47.11,-47.199 V 194.41 C 1362.61,64.3711 1289.82,0.609375 1174.93,0.609375 1060.01,0.609375 989.758,65.0117 989.758,191.34 v 201.801 c 0,26.347 20.772,47.199 47.032,47.199 26.31,0 47.1,-20.852 47.1,-47.199 V 193.809 c 0,-69.938 34.82,-106.0785 92.28,-106.0785 57.47,0 92.28,34.9415 92.28,103.0195 v 202.391 c 0,26.347 20.79,47.199 47.05,47.199 z M 794.359,220.789 v 1.231 c 0,73.621 -53.761,134.929 -129.562,134.929 -75.805,0 -128.356,-60.097 -128.356,-133.73 v -1.199 c 0,-73.61 53.75,-134.938 129.567,-134.938 75.785,0 128.351,60.098 128.351,133.707 z M 666.008,444.02 c 132.051,0 226.773,-98.711 226.773,-220.801 V 222.02 C 892.781,99.9492 796.809,-0.0117188 664.797,-0.0117188 532.758,-0.0117188 438.02,98.7305 438.02,220.789 v 1.231 c 0,122.05 95.972,222 227.988,222 z M 348.383,441 c 28.711,0 45.855,-20.27 45.855,-46.012 0,-12.879 -6.152,-24.558 -12.203,-33.129 L 243.887,174.789 V 50.9102 c 0,-26.3907 -20.789,-47.25004 -47.094,-47.25004 -26.262,0 -47.035,20.85934 -47.035,47.25004 V 172.941 L 11.6172,361.25 C 4.89453,370.43 0,381.488 0,394.988 c 0,25.141 20.7773,45.383 47.0352,45.383 21.3867,0 34.8398,-11.672 46.4414,-28.84 L 197.379,261.262 303.125,412.75 c 11.617,17.18 25.68,28.25 45.258,28.25" /><path
             id="path24"
             style="fill:#e51545;fill-opacity:1;fill-rule:nonzero;stroke:none"
             d="m 1312.81,1696.5 c -39.92,-57.98 -125.3,-58.04 -165.3,-0.09 l -194.104,281.27 c -46.148,66.9 1.567,158.25 82.624,158.25 h 387.75 c 81.03,0 128.73,-91.26 82.68,-158.15 z M 151.098,2099.52 c 131.429,73.87 298.574,25.81 384.351,-98.47 l 373.629,-541.37 c 72.485,-105.05 72.567,-244.19 0.192,-349.32 L 761.699,895.98 C 721.77,838 636.371,837.949 596.402,895.898 L 54.0625,1681.7 c -95.9688,139.17 -53.734375,333.09 97.0355,417.82 z m 2208.912,-15.08 c 130.96,-90.98 163.63,-271.32 72.95,-402.74 L 2017.25,1079.36 C 1920.8,939.621 1762.35,856.488 1592.99,856.488 h -431.31 c 308.25,446.632 796.96,1154.772 796.96,1154.772 90.7,131.43 270.38,164.18 401.37,73.18" /></g></g></g></g></svg>