<?xml version="1.0" standalone="no"?>
<!DOCTYPE svg PUBLIC "-//W3C//DTD SVG 20010904//EN"
 "http://www.w3.org/TR/2001/REC-SVG-20010904/DTD/svg10.dtd">
<svg version="1.0" xmlns="http://www.w3.org/2000/svg"
 width="16.000000pt" height="16.000000pt" viewBox="0 0 16.000000 16.000000"
 preserveAspectRatio="xMidYMid meet">
<metadata>
Created by potrace 1.11, written by Peter Selinger 2001-2013
</metadata>
<g transform="translate(0.000000,16.000000) scale(0.006154,-0.006154)"
fill="#000000" stroke="none">
<path d="M1180 2494 c-685 -49 -895 -67 -929 -80 -186 -71 -229 -317 -83 -473
53 -57 141 -102 212 -109 l46 -4 138 -672 c76 -369 147 -698 157 -731 54 -177
200 -274 369 -247 36 5 72 13 81 16 11 5 20 -4 33 -33 48 -104 174 -151 281
-102 88 40 165 162 165 262 0 35 4 49 18 54 134 53 172 60 172 32 0 -25 55
-88 94 -107 51 -24 94 -25 144 -5 78 33 131 111 139 207 3 35 10 68 15 74 4 6
29 17 53 24 35 10 45 17 46 34 0 11 8 122 18 246 10 124 17 227 15 229 -2 2
-253 -69 -558 -157 -304 -89 -556 -162 -558 -162 -7 0 -43 209 -37 214 2 2
265 73 584 156 319 84 582 154 584 156 11 10 72 790 68 879 -5 132 -35 202
-119 280 -66 61 -128 86 -212 84 -28 -1 -449 -30 -936 -65z m864 -619 c-5
-135 -10 -178 -21 -182 -34 -13 -909 -180 -915 -174 -9 8 -81 381 -75 388 6 5
1010 151 1015 147 2 -1 0 -82 -4 -179z"/>
</g>
</svg>
