<?xml version="1.0" standalone="no"?>
<!DOCTYPE svg PUBLIC "-//W3C//DTD SVG 20010904//EN"
 "http://www.w3.org/TR/2001/REC-SVG-20010904/DTD/svg10.dtd">
<svg version="1.0" xmlns="http://www.w3.org/2000/svg"
 width="1770.000000pt" height="1770.000000pt" viewBox="0 0 1770.000000 1770.000000"
 preserveAspectRatio="xMidYMid meet">
<metadata>
Created by potrace 1.14, written by Peter Selinger 2001-2017
</metadata>
<g transform="translate(0.000000,1770.000000) scale(0.100000,-0.100000)"
fill="#000000" stroke="none">
<path d="M2529 10963 l-2105 -2108 3 -1480 c1 -814 4 -1491 6 -1505 22 -154
48 -254 97 -375 123 -304 365 -563 665 -713 89 -44 230 -94 315 -111 30 -6 69
-14 85 -18 17 -4 548 -8 1180 -10 633 -2 1312 -4 1510 -6 l360 -2 -1 2108 -1
2109 2102 -2102 2102 -2102 2100 2101 c1156 1156 2103 2101 2106 2101 2 0 4
-939 5 -2087 0 -1149 1 -2098 1 -2111 l1 -23 1503 4 c826 1 1513 6 1527 9 14
4 41 9 60 12 50 7 205 53 272 80 300 121 573 380 717 681 64 134 91 225 127
435 3 19 6 704 6 1522 l0 1488 -2105 2105 c-1158 1158 -2107 2105 -2111 2105
-3 0 -950 -945 -2104 -2100 -1154 -1155 -2101 -2100 -2104 -2100 -3 0 -951
945 -2106 2100 -1155 1155 -2101 2100 -2103 2100 -2 0 -952 -948 -2110 -2107z"/>
</g>
</svg>
