<?xml version="1.0" encoding="utf-8"?>
<!-- Generator: Adobe Illustrator 18.0.0, SVG Export Plug-In . SVG Version: 6.00 Build 0)  -->
<!DOCTYPE svg PUBLIC "-//W3C//DTD SVG 1.1//EN" "http://www.w3.org/Graphics/SVG/1.1/DTD/svg11.dtd">
<svg version="1.1" id="Layer_1" xmlns="http://www.w3.org/2000/svg" xmlns:xlink="http://www.w3.org/1999/xlink" x="0px" y="0px"
	 viewBox="0 0 514.6 123.2" enable-background="new 0 0 514.6 123.2" xml:space="preserve">
<g>
	<g>
		<path fill="#D0292B" d="M503.6,28.4l-3.4-21.9c-0.6-4.1-4.4-6.9-8.5-6.3l-8.8,1.3v26.9H503.6z"/>
		<path fill="#D0292B" d="M482.9,63.6c0,10.5,8.5,18.9,18.9,18.9c3.7,0,6.9-0.7,9.7-1.9L506,43.9h-23V63.6z"/>
		<path fill="#D0292B" d="M501.9,98.8c-19.5,0-35.3-15.8-35.3-35.3V43.9h-25.7c-10.5,0-18.9,9.3-18.9,19.8
			c0,10.5,8.5,18.9,18.9,18.9c5.7-0.1,9.7-1.5,13.6-4.4c0,0,0,0,0,0.1c1.6,5.2,4.1,10,7.2,14.3c-5.1,3.6-12,6.3-20.6,6.3h-0.3
			c-19.5,0-35.3-15.8-35.3-35.3c0-19.5,15.8-35.3,35.3-35.3h25.7V4l-68.7,10.5c-4.1,0.6-6.9,4.4-6.3,8.5l14.3,93.8
			c0.6,4.1,4.4,6.9,8.5,6.3l93.8-14.3c4.1-0.6,6.9-4.4,6.3-8.5l-0.5-3.3c-3.5,1.1-7.3,1.9-11.6,1.9H501.9z"/>
	</g>
	<path fill="#353F45" d="M351.3,90.1c-3.3,3.1-6.6,5.4-9.9,6.8c-3.3,1.4-6.9,2.1-10.8,2.1c-8.7,0-16.3-3.4-22.6-10.1
		c-6.4-6.7-9.5-15.1-9.5-25.1c0-10.4,3.1-18.9,9.2-25.5c6.2-6.6,13.6-9.9,22.4-9.9c4.1,0,7.8,0.8,11.4,2.3c3.6,1.5,6.8,3.8,9.9,6.8
		v-2.9c0-2.5,2-4.5,4.5-4.5h7.9c2.5,0,4.5,2,4.5,4.5v58.3c0,2.5-2,4.5-4.5,4.5h-7.9c-2.5,0-4.5-1.6-4.5-3.6V90.1z M333.5,43.9
		c-5.3,0-9.6,1.8-13.1,5.5c-3.5,3.7-5.2,8.4-5.2,14.1c0,5.8,1.8,10.6,5.3,14.3c3.5,3.7,7.9,5.6,13.1,5.6c5.3,0,9.8-1.8,13.3-5.5
		c3.5-3.7,5.3-8.5,5.3-14.4c0-5.8-1.8-10.6-5.3-14.2C343.4,45.7,338.9,43.9,333.5,43.9z"/>
	<path fill="#353F45" d="M240.9,90.1c-3.3,3.1-6.6,5.4-10,6.8c-3.3,1.4-6.9,2.1-10.8,2.1c-8.7,0-16.3-3.4-22.6-10.1
		c-6.4-6.7-9.5-15.1-9.5-25.1c0-10.4,3.1-18.9,9.2-25.5c6.2-6.6,13.6-9.9,22.4-9.9c4,0,7.8,0.8,11.4,2.3c3.6,1.5,6.8,3.8,9.9,6.8
		l0,0v-29c0-2.5,2-4.5,4.5-4.5h7.9c2.5,0,4.5,2,4.5,4.5v84.4c0,2.5-2,4.5-4.5,4.5h-7.9c-2.5,0-4.5-1.6-4.5-3.6L240.9,90.1z
		 M223.2,43.9c-5.3,0-9.6,1.8-13.1,5.5c-3.5,3.7-5.2,8.4-5.2,14.1c0,5.8,1.8,10.6,5.3,14.3c3.5,3.7,7.9,5.6,13.1,5.6
		c5.3,0,9.8-1.8,13.3-5.5c3.5-3.7,5.3-8.5,5.3-14.4c0-5.8-1.8-10.6-5.3-14.2C233,45.7,228.5,43.9,223.2,43.9z"/>
	<path fill="#353F45" d="M0,34.5c0-2.5,2-4.5,4.5-4.5h7.8c2.5,0,4.5,1.8,4.5,3.9c0,2.2,1.5,2.6,3.3,0.9c0,0,2.8-2.6,6.3-4.1
		c3.5-1.6,7.4-2.4,11.6-2.4c4.2,0,8,1,11.4,3.1c3.4,2.1,6.1,5.1,8.2,9.1c2.7-4,6-7,9.9-9.1c3.9-2.1,8.2-3.1,12.8-3.1
		c4.8,0,9,1.1,12.7,3.3c3.6,2.2,6.3,5.1,7.8,8.7c1.6,3.6,2.4,9.4,2.4,17.5v34.9c0,2.5-2,4.5-4.5,4.5h-7.8c-2.5,0-4.5-2-4.5-4.5v-25
		c0-2.5-0.1-6.5-0.3-9c0,0-0.6-8.3-2.5-10.9c-1.9-2.7-4.8-4-8.6-4c-2.9,0-5.5,0.8-7.9,2.5c-2.3,1.6-4,3.9-5.2,6.8
		c-1.1,2.9-1.7,7.5-1.7,13.9v25.7c0,2.5-2,4.5-4.5,4.5h-7.8c-2.5,0-4.5-2-4.5-4.5V69.4c0-2.5-0.1-6.5-0.2-9c0,0-0.3-5.8-1.2-8.5
		c-0.9-2.7-2.2-4.7-4-6c-1.8-1.3-4-2-6.5-2c-2.8,0-5.4,0.8-7.7,2.5c-2.3,1.7-4,4-5.2,7c-1.2,3-1.7,7.7-1.7,14.2v25.3
		c0,2.5-2,4.5-4.5,4.5H4.5c-2.5,0-4.5-2-4.5-4.5V34.5z"/>
	<g>
		<path fill="#353F45" d="M270.7,92.8c0,2.5,2,4.5,4.5,4.5h7.8c2.5,0,4.5-2,4.5-4.5V34.5c0-2.5-2-4.5-4.5-4.5h-7.8
			c-2.5,0-4.5,2-4.5,4.5V92.8z"/>
	</g>
	<g>
		<path fill="#D0292B" d="M270.7,16.3c0,2.5,2,4.5,4.5,4.5h7.8c2.5,0,4.5-2,4.5-4.5V8.5c0-2.5-2-4.5-4.5-4.5h-7.8
			c-2.5,0-4.5,2-4.5,4.5V16.3z"/>
	</g>
	<path fill="#353F45" d="M164.7,55.3c-1.1-3.7-3.3-6.7-6.6-9c-3.3-2.3-7.1-3.5-11.4-3.5c-4.7,0-8.8,1.3-12.4,3.9
		c-2.2,1.6-4.3,4.5-6.2,8.6H164.7z M127.2,68.5c0.8,4.8,2.9,8.6,6.3,11.4c3.4,2.8,7.7,4.2,13,4.2c4.5,0,8.6-1.2,12.3-3.5
		c1.4-0.9,2.9-2.2,4.3-2.3c1.4-0.3,3.7,1,3.7,1l5.9,2.8l1.8,0.8c2.7,1.3,0.7,3.6,0.7,3.6c-0.6,0.9-2.5,2.7-2.5,2.7
		c-2.5,2.5-5.7,4.3-8.8,5.8c-4.9,2.4-10.4,3.8-17.2,3.8c-10.5,0-19.1-3.3-25.7-10c-6.6-6.6-9.9-15-9.9-25c0-10.2,3.3-18.7,9.9-25.5
		c6.6-6.8,14.9-10.1,24.9-10.1c10.6,0,19.2,3.4,25.8,10.1c6.3,6.4,9.6,14.7,9.9,25c0,0,0.1,2.6-1.8,4c-1.4,1-4.6,0.9-4.6,0.9
		L127.2,68.5"/>
</g>
</svg>
